<?xml version="1.0" encoding="UTF-8" standalone="no"?>
<svg
   xmlns:dc="http://purl.org/dc/elements/1.1/"
   xmlns:cc="http://creativecommons.org/ns#"
   xmlns:rdf="http://www.w3.org/1999/02/22-rdf-syntax-ns#"
   xmlns:svg="http://www.w3.org/2000/svg"
   xmlns="http://www.w3.org/2000/svg"
   xmlns:sodipodi="http://sodipodi.sourceforge.net/DTD/sodipodi-0.dtd"
   xmlns:inkscape="http://www.inkscape.org/namespaces/inkscape"
   width="210mm"
   height="297mm"
   viewBox="0 0 210 297"
   version="1.1"
   id="svg8"
   inkscape:version="1.0.2 (e86c870879, 2021-01-15)"
   sodipodi:docname="bowtie.svg">
  <defs
     id="defs2" />
  <sodipodi:namedview
     id="base"
     pagecolor="#ffffff"
     bordercolor="#666666"
     borderopacity="1.0"
     inkscape:pageopacity="0.0"
     inkscape:pageshadow="2"
     inkscape:zoom="0.46711193"
     inkscape:cx="573.41417"
     inkscape:cy="739.322"
     inkscape:document-units="mm"
     inkscape:current-layer="layer1"
     inkscape:document-rotation="0"
     showgrid="false"
     inkscape:window-width="1920"
     inkscape:window-height="1080"
     inkscape:window-x="0"
     inkscape:window-y="0"
     inkscape:window-maximized="1" />
  <metadata
     id="metadata5">
    <rdf:RDF>
      <cc:Work
         rdf:about="">
        <dc:format>image/svg+xml</dc:format>
        <dc:type
           rdf:resource="http://purl.org/dc/dcmitype/StillImage" />
        <dc:title></dc:title>
      </cc:Work>
    </rdf:RDF>
  </metadata>
  <g
     inkscape:label="Layer 1"
     inkscape:groupmode="layer"
     id="layer1">
    <path
       id="path833"
       style="color:#000000;font-style:normal;font-variant:normal;font-weight:normal;font-stretch:normal;font-size:medium;line-height:normal;font-family:sans-serif;font-variant-ligatures:normal;font-variant-position:normal;font-variant-caps:normal;font-variant-numeric:normal;font-variant-alternates:normal;font-variant-east-asian:normal;font-feature-settings:normal;font-variation-settings:normal;text-indent:0;text-align:start;text-decoration:none;text-decoration-line:none;text-decoration-style:solid;text-decoration-color:#000000;letter-spacing:normal;word-spacing:normal;text-transform:none;writing-mode:lr-tb;direction:ltr;text-orientation:mixed;dominant-baseline:auto;baseline-shift:baseline;text-anchor:start;white-space:normal;shape-padding:0;shape-margin:0;inline-size:0;clip-rule:nonzero;display:inline;overflow:visible;visibility:visible;opacity:1;isolation:auto;mix-blend-mode:normal;color-interpolation:sRGB;color-interpolation-filters:linearRGB;solid-color:#000000;solid-opacity:1;vector-effect:none;fill:#000000;fill-opacity:1;fill-rule:nonzero;stroke:none;stroke-width:3.77953;stroke-linecap:round;stroke-linejoin:round;stroke-miterlimit:4;stroke-dasharray:none;stroke-dashoffset:0;stroke-opacity:1;color-rendering:auto;image-rendering:auto;shape-rendering:auto;text-rendering:auto;enable-background:accumulate;stop-color:#000000;stop-opacity:1"
       d="M 15.314453 7.5605469 A 8.1267972 8.1267972 0 0 0 15.021484 7.5664062 A 8.1267972 8.1267972 0 0 0 7.2050781 15.679688 L 6.9980469 175.73438 A 8.1259846 8.1259846 0 0 0 6.9980469 175.73633 L 6.9980469 175.77734 A 8.1259846 8.1259846 0 0 0 6.9980469 175.79297 L 7.2050781 335.89062 A 8.1267972 8.1267972 0 0 0 20.957031 341.74414 L 138.6582 228.77344 L 138.47656 369.72461 A 8.1259846 8.1259846 0 0 0 138.47656 369.72656 L 138.47656 369.76562 A 8.1259846 8.1259846 0 0 0 138.47656 369.78906 L 138.6582 510.78125 L 20.957031 397.81055 A 8.1267972 8.1267972 0 0 0 15.021484 395.55078 A 8.1267972 8.1267972 0 0 0 7.2050781 403.66406 L 6.9980469 563.71875 A 8.1259846 8.1259846 0 0 0 6.9980469 563.7207 L 6.9980469 563.75586 A 8.1259846 8.1259846 0 0 0 6.9980469 563.77734 L 7.2050781 723.875 A 8.1267972 8.1267972 0 0 0 20.957031 729.72852 L 146.81445 608.93164 L 272.66406 729.72852 A 8.1267972 8.1267972 0 0 0 276.80078 731.85156 A 8.1267972 8.1267972 0 0 0 276.82617 731.85742 A 8.1267972 8.1267972 0 0 0 276.98438 731.88477 A 8.1267972 8.1267972 0 0 0 277.07422 731.90039 A 8.1267972 8.1267972 0 0 0 277.24414 731.92383 A 8.1267972 8.1267972 0 0 0 277.30664 731.93164 A 8.1267972 8.1267972 0 0 0 277.49414 731.95117 A 8.1267972 8.1267972 0 0 0 277.54688 731.95703 A 8.1267972 8.1267972 0 0 0 277.68164 731.9668 A 8.1267972 8.1267972 0 0 0 277.79492 731.97656 A 8.1267972 8.1267972 0 0 0 278.46094 731.98828 A 8.1267972 8.1267972 0 0 0 278.48633 731.98828 A 8.1267972 8.1267972 0 0 0 278.53906 731.98633 A 8.1267972 8.1267972 0 0 0 278.54883 731.98633 A 8.1267972 8.1267972 0 0 0 278.55859 731.98633 A 8.1267972 8.1267972 0 0 0 278.875 731.96875 A 8.1267972 8.1267972 0 0 0 278.96484 731.96289 A 8.1267972 8.1267972 0 0 0 283.92188 729.72852 L 409.77539 608.92773 L 535.40039 729.50586 A 8.1267972 8.1267972 0 0 0 546.88672 729.72852 L 672.73828 608.93164 L 798.5957 729.72852 A 8.1267972 8.1267972 0 0 0 812.34766 723.875 L 812.55469 563.81836 A 8.1259846 8.1259846 0 0 0 812.55469 563.75586 L 812.34766 403.66406 A 8.1267972 8.1267972 0 0 0 803.92383 395.55078 A 8.1267972 8.1267972 0 0 0 798.5957 397.81055 L 680.88672 510.78906 L 681.07617 369.78906 A 8.1259846 8.1259846 0 0 0 681.07617 369.77344 A 8.1259846 8.1259846 0 0 0 681.07617 369.76562 L 680.88672 228.76562 L 798.5957 341.74414 A 8.1267972 8.1267972 0 0 0 812.34766 335.89062 L 812.55469 175.83398 L 812.55469 175.83203 A 8.1259846 8.1259846 0 0 0 812.55469 175.77734 L 812.34766 15.679688 A 8.1267972 8.1267972 0 0 0 803.92383 7.5664062 A 8.1267972 8.1267972 0 0 0 798.5957 9.8261719 L 672.73828 130.62305 L 546.88672 9.8261719 A 8.1267972 8.1267972 0 0 0 542.73633 7.6972656 A 8.1267972 8.1267972 0 0 0 542.67578 7.6855469 A 8.1267972 8.1267972 0 0 0 542.50195 7.65625 A 8.1267972 8.1267972 0 0 0 542.4375 7.6464844 A 8.1267972 8.1267972 0 0 0 542.26367 7.6230469 A 8.1267972 8.1267972 0 0 0 542.24609 7.6210938 A 8.1267972 8.1267972 0 0 0 542.00781 7.5957031 A 8.1267972 8.1267972 0 0 0 541.87891 7.5859375 A 8.1267972 8.1267972 0 0 0 541.75391 7.5761719 A 8.1267972 8.1267972 0 0 0 541.72266 7.5742188 A 8.1267972 8.1267972 0 0 0 541.54688 7.5664062 A 8.1267972 8.1267972 0 0 0 541.48438 7.5644531 A 8.1267972 8.1267972 0 0 0 541.43164 7.5644531 A 8.1267972 8.1267972 0 0 0 541.26562 7.5605469 A 8.1267972 8.1267972 0 0 0 541.00391 7.5644531 A 8.1267972 8.1267972 0 0 0 540.95898 7.5664062 A 8.1267972 8.1267972 0 0 0 540.94531 7.5664062 A 8.1267972 8.1267972 0 0 0 540.5625 7.5917969 A 8.1267972 8.1267972 0 0 0 540.48047 7.5976562 A 8.1267972 8.1267972 0 0 0 540.4668 7.5996094 A 8.1267972 8.1267972 0 0 0 540.41992 7.6054688 A 8.1267972 8.1267972 0 0 0 535.46484 9.984375 L 409.77539 130.62695 L 283.92188 9.8261719 A 8.1267972 8.1267972 0 0 0 283.61523 9.546875 A 8.1267972 8.1267972 0 0 0 280.00781 7.7441406 A 8.1267972 8.1267972 0 0 0 279.99219 7.7421875 A 8.1267972 8.1267972 0 0 0 279.77148 7.6972656 A 8.1267972 8.1267972 0 0 0 279.70898 7.6855469 A 8.1267972 8.1267972 0 0 0 279.53516 7.65625 A 8.1267972 8.1267972 0 0 0 279.47266 7.6464844 A 8.1267972 8.1267972 0 0 0 279.29883 7.6230469 A 8.1267972 8.1267972 0 0 0 279.28125 7.6210938 A 8.1267972 8.1267972 0 0 0 279.06055 7.5976562 A 8.1267972 8.1267972 0 0 0 278.99609 7.5917969 A 8.1267972 8.1267972 0 0 0 278.78906 7.5761719 A 8.1267972 8.1267972 0 0 0 278.75781 7.5742188 A 8.1267972 8.1267972 0 0 0 278.54102 7.5644531 A 8.1267972 8.1267972 0 0 0 278.51758 7.5644531 A 8.1267972 8.1267972 0 0 0 278.4707 7.5644531 A 8.1267972 8.1267972 0 0 0 278.30078 7.5605469 A 8.1267972 8.1267972 0 0 0 277.98633 7.5664062 A 8.1267972 8.1267972 0 0 0 277.67578 7.5839844 A 8.1267972 8.1267972 0 0 0 277.35352 7.6171875 A 8.1267972 8.1267972 0 0 0 277.1543 7.6425781 A 8.1267972 8.1267972 0 0 0 277.04102 7.6582031 A 8.1267972 8.1267972 0 0 0 277.0332 7.6601562 A 8.1267972 8.1267972 0 0 0 276.96094 7.671875 A 8.1267972 8.1267972 0 0 0 276.60938 7.7382812 A 8.1267972 8.1267972 0 0 0 276.57031 7.7460938 A 8.1267972 8.1267972 0 0 0 276.5625 7.7480469 A 8.1267972 8.1267972 0 0 0 276.32812 7.8027344 A 8.1267972 8.1267972 0 0 0 276.29102 7.8125 A 8.1267972 8.1267972 0 0 0 276.10352 7.8613281 A 8.1267972 8.1267972 0 0 0 276.09766 7.8632812 A 8.1267972 8.1267972 0 0 0 275.875 7.9296875 A 8.1267972 8.1267972 0 0 0 275.81641 7.9492188 A 8.1267972 8.1267972 0 0 0 275.42188 8.0859375 A 8.1267972 8.1267972 0 0 0 275.32422 8.125 A 8.1267972 8.1267972 0 0 0 274.97852 8.2675781 A 8.1267972 8.1267972 0 0 0 274.9707 8.2714844 A 8.1267972 8.1267972 0 0 0 274.75977 8.3691406 A 8.1267972 8.1267972 0 0 0 274.75391 8.3730469 A 8.1267972 8.1267972 0 0 0 274.54688 8.4765625 A 8.1267972 8.1267972 0 0 0 274.50781 8.4980469 A 8.1267972 8.1267972 0 0 0 272.96484 9.5527344 A 8.1267972 8.1267972 0 0 0 272.95898 9.5585938 A 8.1267972 8.1267972 0 0 0 272.66406 9.8261719 L 146.81445 130.62305 L 20.957031 9.8261719 A 8.1267972 8.1267972 0 0 0 15.314453 7.5605469 z M 23.4375 34.724609 L 141.18555 147.75586 A 8.1259846 8.1259846 0 0 0 141.25586 147.82031 A 8.1259846 8.1259846 0 0 0 141.31836 147.88086 A 8.1259846 8.1259846 0 0 0 141.36133 147.91992 A 8.1259846 8.1259846 0 0 0 141.4707 148.01562 A 8.1259846 8.1259846 0 0 0 141.5918 148.12109 A 8.1259846 8.1259846 0 0 0 142.47852 148.76562 A 8.1259846 8.1259846 0 0 0 142.53711 148.80273 A 8.1259846 8.1259846 0 0 0 143.31641 149.22852 A 8.1259846 8.1259846 0 0 0 143.38477 149.25977 A 8.1259846 8.1259846 0 0 0 152.44336 147.75586 L 270.14453 34.769531 L 269.96289 175.73438 A 8.1259846 8.1259846 0 0 0 269.96289 175.73633 A 8.1259846 8.1259846 0 0 0 269.96289 175.79297 L 270.14453 316.79688 L 152.44336 203.81445 A 8.1267972 8.1267972 0 0 0 151.9043 203.33984 A 8.1259846 8.1259846 0 0 0 151.90234 203.33984 A 8.1259846 8.1259846 0 0 0 151.51953 203.05078 A 8.1259846 8.1259846 0 0 0 151.12109 202.78516 A 8.1259846 8.1259846 0 0 0 150.49414 202.43164 A 8.1259846 8.1259846 0 0 0 143.61719 202.20508 A 8.1259846 8.1259846 0 0 0 143.43555 202.28711 A 8.1259846 8.1259846 0 0 0 143.38086 202.31055 A 8.1259846 8.1259846 0 0 0 142.78516 202.61914 A 8.1259846 8.1259846 0 0 0 142.74023 202.64648 A 8.1259846 8.1259846 0 0 0 142.6875 202.67578 A 8.1259846 8.1259846 0 0 0 142.64453 202.70312 A 8.1267972 8.1267972 0 0 0 142.61133 202.72266 A 8.1259846 8.1259846 0 0 0 142.55469 202.75586 A 8.1259846 8.1259846 0 0 0 142.21875 202.97461 A 8.1267972 8.1267972 0 0 0 142.18555 202.99805 A 8.1259846 8.1259846 0 0 0 142.1543 203.01953 A 8.1259846 8.1259846 0 0 0 142.02344 203.11328 A 8.1267972 8.1267972 0 0 0 142.00391 203.12695 A 8.1259846 8.1259846 0 0 0 141.95898 203.16016 A 8.1259846 8.1259846 0 0 0 141.8418 203.24805 A 8.1267972 8.1267972 0 0 0 141.80273 203.2793 A 8.1259846 8.1259846 0 0 0 141.75391 203.31836 A 8.1259846 8.1259846 0 0 0 141.65234 203.39844 A 8.1267972 8.1267972 0 0 0 141.60742 203.4375 A 8.1259846 8.1259846 0 0 0 141.52344 203.50977 A 8.1259846 8.1259846 0 0 0 141.48828 203.53906 A 8.1267972 8.1267972 0 0 0 141.44727 203.57422 A 8.1259846 8.1259846 0 0 0 141.35742 203.6543 A 8.1259846 8.1259846 0 0 0 141.31641 203.69336 A 8.1259846 8.1259846 0 0 0 141.30859 203.69922 A 8.1267972 8.1267972 0 0 0 141.26758 203.73828 A 8.1259846 8.1259846 0 0 0 141.26367 203.74219 A 8.1259846 8.1259846 0 0 0 141.18555 203.81445 A 8.1259846 8.1259846 0 0 0 141.16602 203.83398 A 8.1267972 8.1267972 0 0 0 141.11133 203.88672 L 23.4375 316.8457 L 23.246094 175.85547 A 8.1259846 8.1259846 0 0 0 23.246094 175.79297 L 23.246094 175.77734 L 23.4375 34.724609 z M 796.11523 34.724609 L 796.29883 175.70703 L 796.29883 175.78516 L 796.29883 175.79297 L 796.11523 316.8457 L 678.45117 203.89844 L 678.43359 203.87891 A 8.1259846 8.1259846 0 0 0 678.36523 203.81445 A 8.1259846 8.1259846 0 0 0 678.25977 203.71484 A 8.1259846 8.1259846 0 0 0 678.25781 203.71289 A 8.1259846 8.1259846 0 0 0 678.08203 203.55469 A 8.1259846 8.1259846 0 0 0 677.96094 203.44922 A 8.1259846 8.1259846 0 0 0 677.82617 203.33984 A 8.1259846 8.1259846 0 0 0 677.71289 203.25 A 8.1259846 8.1259846 0 0 0 677.63672 203.19141 A 8.1259846 8.1259846 0 0 0 677.51953 203.10547 A 8.1259846 8.1259846 0 0 0 677.44336 203.05078 A 8.1259846 8.1259846 0 0 0 677.32422 202.9668 A 8.1259846 8.1259846 0 0 0 677.24609 202.91406 A 8.1259846 8.1259846 0 0 0 677.2207 202.89844 A 8.1259846 8.1259846 0 0 0 677.04492 202.78516 A 8.1259846 8.1259846 0 0 0 676.92188 202.70898 A 8.1259846 8.1259846 0 0 0 676.83984 202.66016 A 8.1259846 8.1259846 0 0 0 676.71289 202.58789 A 8.1259846 8.1259846 0 0 0 676.65625 202.55664 A 8.1259846 8.1259846 0 0 0 676.50391 202.47461 A 8.1259846 8.1259846 0 0 0 676.41992 202.43164 A 8.1259846 8.1259846 0 0 0 676.41016 202.42773 A 8.1259846 8.1259846 0 0 0 676.20312 202.32617 A 8.1259846 8.1259846 0 0 0 676.00391 202.23438 A 8.1259846 8.1259846 0 0 0 675.98633 202.22656 A 8.1259846 8.1259846 0 0 0 675.85156 202.16992 A 8.1259846 8.1259846 0 0 0 675.66992 202.0957 A 8.1259846 8.1259846 0 0 0 675.62891 202.08008 A 8.1259846 8.1259846 0 0 0 675.54102 202.04688 A 8.1259846 8.1259846 0 0 0 675.48633 202.02734 A 8.1259846 8.1259846 0 0 0 675.32031 201.9707 A 8.1259846 8.1259846 0 0 0 675.31445 201.96875 A 8.1259846 8.1259846 0 0 0 675.17578 201.92383 A 8.1259846 8.1259846 0 0 0 675.11328 201.9043 A 8.1259846 8.1259846 0 0 0 674.94727 201.85547 A 8.1259846 8.1259846 0 0 0 674.85547 201.83008 A 8.1259846 8.1259846 0 0 0 674.8125 201.82031 A 8.1259846 8.1259846 0 0 0 674.62305 201.77148 A 8.1259846 8.1259846 0 0 0 674.39648 201.7207 A 8.1259846 8.1259846 0 0 0 674.38867 201.71875 A 8.1259846 8.1259846 0 0 0 674.37695 201.7168 A 8.1259846 8.1259846 0 0 0 674.1543 201.67383 A 8.1259846 8.1259846 0 0 0 673.94141 201.63867 A 8.1259846 8.1259846 0 0 0 673.91797 201.63477 A 8.1259846 8.1259846 0 0 0 673.77344 201.61523 A 8.1259846 8.1259846 0 0 0 673.67969 201.60352 A 8.1259846 8.1259846 0 0 0 673.62109 201.59766 A 8.1259846 8.1259846 0 0 0 673.44922 201.58008 A 8.1259846 8.1259846 0 0 0 673.42578 201.57812 A 8.1259846 8.1259846 0 0 0 673.23438 201.56445 A 8.1259846 8.1259846 0 0 0 673.20312 201.5625 A 8.1259846 8.1259846 0 0 0 673.17188 201.56055 A 8.1259846 8.1259846 0 0 0 672.96289 201.55273 A 8.1259846 8.1259846 0 0 0 672.75391 201.54883 A 8.1259846 8.1259846 0 0 0 672.55273 201.55078 A 8.1259846 8.1259846 0 0 0 672.41797 201.55664 A 8.1259846 8.1259846 0 0 0 672.26172 201.56445 A 8.1259846 8.1259846 0 0 0 672.24414 201.56445 A 8.1259846 8.1259846 0 0 0 672.20898 201.56641 A 8.1259846 8.1259846 0 0 0 672.04492 201.58008 A 8.1259846 8.1259846 0 0 0 671.96484 201.58594 A 8.1259846 8.1259846 0 0 0 671.76758 201.60742 A 8.1259846 8.1259846 0 0 0 671.75977 201.60742 A 8.1259846 8.1259846 0 0 0 671.56836 201.63281 A 8.1259846 8.1259846 0 0 0 671.5293 201.63867 A 8.1259846 8.1259846 0 0 0 671.43164 201.6543 A 8.1259846 8.1259846 0 0 0 671.35938 201.66602 A 8.1259846 8.1259846 0 0 0 671.21289 201.69336 A 8.1259846 8.1259846 0 0 0 671.09961 201.7168 A 8.1259846 8.1259846 0 0 0 670.98047 201.74219 A 8.1259846 8.1259846 0 0 0 670.87695 201.76562 A 8.1259846 8.1259846 0 0 0 670.77148 201.79102 A 8.1259846 8.1259846 0 0 0 670.5957 201.83594 A 8.1259846 8.1259846 0 0 0 670.58594 201.83984 A 8.1259846 8.1259846 0 0 0 670.37695 201.90039 A 8.1259846 8.1259846 0 0 0 670.32617 201.91602 A 8.1259846 8.1259846 0 0 0 670.19141 201.95703 A 8.1259846 8.1259846 0 0 0 669.99609 202.02539 A 8.1259846 8.1259846 0 0 0 669.78711 202.10352 A 8.1259846 8.1259846 0 0 0 669.71875 202.13086 A 8.1259846 8.1259846 0 0 0 669.66992 202.15039 A 8.1259846 8.1259846 0 0 0 669.46289 202.23828 A 8.1259846 8.1259846 0 0 0 669.25977 202.33203 A 8.1259846 8.1259846 0 0 0 669.20117 202.35938 A 8.1259846 8.1259846 0 0 0 669.0918 202.41406 A 8.1259846 8.1259846 0 0 0 668.90234 202.51172 A 8.1259846 8.1259846 0 0 0 668.81836 202.55664 A 8.1259846 8.1259846 0 0 0 668.77148 202.58398 A 8.1259846 8.1259846 0 0 0 668.75391 202.59375 A 8.1259846 8.1259846 0 0 0 668.62305 202.66797 A 8.1259846 8.1259846 0 0 0 668.60938 202.67578 A 8.1259846 8.1259846 0 0 0 668.56445 202.70312 A 8.1259846 8.1259846 0 0 0 668.54102 202.7168 A 8.1259846 8.1259846 0 0 0 668.47656 202.75586 A 8.1259846 8.1259846 0 0 0 668.2832 202.87891 A 8.1259846 8.1259846 0 0 0 668.20508 202.92969 A 8.1259846 8.1259846 0 0 0 668.16016 202.96094 A 8.1259846 8.1259846 0 0 0 668.15625 202.96484 A 8.1259846 8.1259846 0 0 0 668.04102 203.04297 A 8.1259846 8.1259846 0 0 0 668.00781 203.06641 A 8.1259846 8.1259846 0 0 0 667.96484 203.09961 A 8.1259846 8.1259846 0 0 0 667.9082 203.14062 A 8.1259846 8.1259846 0 0 0 667.875 203.16406 A 8.1259846 8.1259846 0 0 0 667.77344 203.24219 A 8.1259846 8.1259846 0 0 0 667.74805 203.26172 A 8.1259846 8.1259846 0 0 0 667.63672 203.34961 A 8.1259846 8.1259846 0 0 0 667.61523 203.36719 A 8.1259846 8.1259846 0 0 0 667.58398 203.39258 A 8.1259846 8.1259846 0 0 0 667.46094 203.49609 A 8.1259846 8.1259846 0 0 0 667.44141 203.51172 A 8.1259846 8.1259846 0 0 0 667.40234 203.54688 A 8.1259846 8.1259846 0 0 0 667.38867 203.55859 A 8.1259846 8.1259846 0 0 0 667.26367 203.66992 A 8.1267972 8.1267972 0 0 0 667.17383 203.75195 A 8.1259846 8.1259846 0 0 0 667.15625 203.76953 A 8.1267972 8.1267972 0 0 0 667.10938 203.81445 A 8.1259846 8.1259846 0 0 0 667.06055 203.86133 L 549.4082 316.79688 L 549.58984 175.83203 A 8.1259846 8.1259846 0 0 0 549.58984 175.77734 L 549.4082 34.771484 L 667.10938 147.75586 A 8.1259846 8.1259846 0 0 0 667.20898 147.84961 A 8.1259846 8.1259846 0 0 0 667.2168 147.85742 A 8.1259846 8.1259846 0 0 0 667.37891 148.00195 A 8.1259846 8.1259846 0 0 0 667.41406 148.03516 A 8.1259846 8.1259846 0 0 0 667.51172 148.11719 A 8.1259846 8.1259846 0 0 0 667.61133 148.20117 A 8.1259846 8.1259846 0 0 0 667.72266 148.28906 A 8.1259846 8.1259846 0 0 0 667.80469 148.35156 A 8.1259846 8.1259846 0 0 0 667.87109 148.40234 A 8.1259846 8.1259846 0 0 0 668.00977 148.50391 A 8.1259846 8.1259846 0 0 0 668.06641 148.54492 A 8.1259846 8.1259846 0 0 0 668.18945 148.62891 A 8.1259846 8.1259846 0 0 0 668.31641 148.71289 A 8.1259846 8.1259846 0 0 0 668.375 148.75 A 8.1259846 8.1259846 0 0 0 668.42969 148.78516 A 8.1259846 8.1259846 0 0 0 668.55469 148.86133 A 8.1259846 8.1259846 0 0 0 668.7168 148.95703 A 8.1259846 8.1259846 0 0 0 668.80664 149.00586 A 8.1259846 8.1259846 0 0 0 668.90625 149.05859 A 8.1259846 8.1259846 0 0 0 669.02344 149.12109 A 8.1259846 8.1259846 0 0 0 669.09961 149.16016 A 8.1259846 8.1259846 0 0 0 669.23828 149.22852 A 8.1259846 8.1259846 0 0 0 669.33008 149.26953 A 8.1259846 8.1259846 0 0 0 669.44727 149.32422 A 8.1259846 8.1259846 0 0 0 669.54297 149.36523 A 8.1259846 8.1259846 0 0 0 669.68945 149.42578 A 8.1259846 8.1259846 0 0 0 669.76367 149.45508 A 8.1259846 8.1259846 0 0 0 669.8457 149.48828 A 8.1259846 8.1259846 0 0 0 670.02734 149.55469 A 8.1259846 8.1259846 0 0 0 670.0957 149.57812 A 8.1259846 8.1259846 0 0 0 670.23633 149.625 A 8.1259846 8.1259846 0 0 0 670.36133 149.66602 A 8.1259846 8.1259846 0 0 0 670.43164 149.68555 A 8.1259846 8.1259846 0 0 0 670.58203 149.73047 A 8.1259846 8.1259846 0 0 0 670.66016 149.75 A 8.1259846 8.1259846 0 0 0 671.05078 149.84375 A 8.1259846 8.1259846 0 0 0 671.22852 149.87891 A 8.1259846 8.1259846 0 0 0 671.66797 149.95117 A 8.1259846 8.1259846 0 0 0 671.73633 149.95898 A 8.1259846 8.1259846 0 0 0 671.85352 149.97266 A 8.1259846 8.1259846 0 0 0 672.0332 149.99023 A 8.1259846 8.1259846 0 0 0 672.04688 149.99219 A 8.1259846 8.1259846 0 0 0 672.24805 150.00586 A 8.1259846 8.1259846 0 0 0 672.29883 150.00977 A 8.1259846 8.1259846 0 0 0 672.7207 150.02148 A 8.1259846 8.1259846 0 0 0 672.75195 150.02148 A 8.1259846 8.1259846 0 0 0 672.84766 150.01953 A 8.1259846 8.1259846 0 0 0 672.89648 150.01953 A 8.1259846 8.1259846 0 0 0 672.92188 150.01953 A 8.1259846 8.1259846 0 0 0 673.0625 150.01367 A 8.1259846 8.1259846 0 0 0 673.23047 150.00586 A 8.1259846 8.1259846 0 0 0 673.375 149.99609 A 8.1259846 8.1259846 0 0 0 673.4707 149.98828 A 8.1259846 8.1259846 0 0 0 673.51367 149.98438 A 8.1259846 8.1259846 0 0 0 673.70898 149.96289 A 8.1259846 8.1259846 0 0 0 674.08984 149.9082 A 8.1259846 8.1259846 0 0 0 674.11523 149.9043 A 8.1259846 8.1259846 0 0 0 674.32422 149.86523 A 8.1259846 8.1259846 0 0 0 674.41797 149.8457 A 8.1259846 8.1259846 0 0 0 674.55859 149.81445 A 8.1259846 8.1259846 0 0 0 674.65039 149.79297 A 8.1259846 8.1259846 0 0 0 674.6875 149.7832 A 8.1259846 8.1259846 0 0 0 675.56836 149.51172 A 8.1259846 8.1259846 0 0 0 675.70312 149.46094 A 8.1259846 8.1259846 0 0 0 675.79102 149.42578 A 8.1259846 8.1259846 0 0 0 675.92578 149.36914 A 8.1259846 8.1259846 0 0 0 676.01172 149.33203 A 8.1259846 8.1259846 0 0 0 676.57422 149.05859 A 8.1259846 8.1259846 0 0 0 676.65625 149.01367 A 8.1259846 8.1259846 0 0 0 676.67188 149.00391 A 8.1259846 8.1259846 0 0 0 676.86523 148.89453 A 8.1259846 8.1259846 0 0 0 676.98828 148.82031 A 8.1259846 8.1259846 0 0 0 677.06836 148.76953 A 8.1259846 8.1259846 0 0 0 677.07031 148.76758 A 8.1259846 8.1259846 0 0 0 677.26953 148.63867 A 8.1259846 8.1259846 0 0 0 677.27734 148.63477 A 8.1259846 8.1259846 0 0 0 677.4668 148.50195 A 8.1259846 8.1259846 0 0 0 677.58398 148.41797 A 8.1259846 8.1259846 0 0 0 677.66016 148.36133 A 8.1259846 8.1259846 0 0 0 677.77539 148.27148 A 8.1259846 8.1259846 0 0 0 677.84766 148.21289 A 8.1259846 8.1259846 0 0 0 677.96094 148.11914 A 8.1259846 8.1259846 0 0 0 678.0332 148.05859 A 8.1259846 8.1259846 0 0 0 678.14258 147.96289 A 8.1259846 8.1259846 0 0 0 678.15625 147.94922 A 8.1259846 8.1259846 0 0 0 678.31836 147.80078 A 8.1259846 8.1259846 0 0 0 678.36523 147.75586 A 8.1259846 8.1259846 0 0 0 678.41406 147.70898 L 796.11523 34.724609 z M 286.44336 34.771484 L 404.15039 147.75586 A 8.1259846 8.1259846 0 0 0 404.74414 148.27148 A 8.1259846 8.1259846 0 0 0 404.86719 148.36719 A 8.1259846 8.1259846 0 0 0 404.88086 148.37695 A 8.1259846 8.1259846 0 0 0 404.99805 148.46289 A 8.1259846 8.1259846 0 0 0 405.16992 148.58398 A 8.1259846 8.1259846 0 0 0 405.23242 148.62695 A 8.1259846 8.1259846 0 0 0 405.3125 148.67969 A 8.1259846 8.1259846 0 0 0 405.43359 148.75977 A 8.1259846 8.1259846 0 0 0 405.59766 148.86133 A 8.1259846 8.1259846 0 0 0 405.64453 148.88867 A 8.1259846 8.1259846 0 0 0 405.73242 148.9375 A 8.1259846 8.1259846 0 0 0 406.01562 149.09375 A 8.1259846 8.1259846 0 0 0 406.17773 149.17773 A 8.1259846 8.1259846 0 0 0 406.27344 149.22266 A 8.1259846 8.1259846 0 0 0 406.37695 149.27148 A 8.1259846 8.1259846 0 0 0 406.51758 149.33398 A 8.1259846 8.1259846 0 0 0 406.5332 149.3418 A 8.1259846 8.1259846 0 0 0 407.11914 149.57031 A 8.1259846 8.1259846 0 0 0 407.28906 149.62695 A 8.1259846 8.1259846 0 0 0 407.39648 149.66016 A 8.1259846 8.1259846 0 0 0 407.51367 149.69531 A 8.1259846 8.1259846 0 0 0 407.5918 149.71875 A 8.1259846 8.1259846 0 0 0 407.96875 149.81445 A 8.1259846 8.1259846 0 0 0 408.08203 149.83984 A 8.1259846 8.1259846 0 0 0 408.24609 149.87109 A 8.1259846 8.1259846 0 0 0 408.28516 149.87891 A 8.1259846 8.1259846 0 0 0 408.44531 149.90625 A 8.1259846 8.1259846 0 0 0 408.56641 149.92578 A 8.1259846 8.1259846 0 0 0 408.67578 149.94141 A 8.1259846 8.1259846 0 0 0 408.78125 149.95508 A 8.1259846 8.1259846 0 0 0 408.95703 149.97461 A 8.1259846 8.1259846 0 0 0 408.98438 149.97852 A 8.1259846 8.1259846 0 0 0 409.20508 149.99609 A 8.1259846 8.1259846 0 0 0 409.31641 150.00391 A 8.1259846 8.1259846 0 0 0 409.3457 150.00586 A 8.1259846 8.1259846 0 0 0 409.76367 150.01758 A 8.1259846 8.1259846 0 0 0 409.79492 150.01758 A 8.1259846 8.1259846 0 0 0 409.88867 150.01562 A 8.1259846 8.1259846 0 0 0 409.94141 150.01562 A 8.1259846 8.1259846 0 0 0 409.9668 150.01562 A 8.1259846 8.1259846 0 0 0 410.10547 150.00977 A 8.1259846 8.1259846 0 0 0 410.27539 150.00195 A 8.1259846 8.1259846 0 0 0 410.31641 149.99805 A 8.1259846 8.1259846 0 0 0 410.45703 149.98828 A 8.1259846 8.1259846 0 0 0 410.89648 149.93945 A 8.1259846 8.1259846 0 0 0 410.99023 149.92578 A 8.1259846 8.1259846 0 0 0 411.00781 149.92383 A 8.1259846 8.1259846 0 0 0 411.22656 149.88672 A 8.1259846 8.1259846 0 0 0 411.36914 149.85938 A 8.1259846 8.1259846 0 0 0 411.69531 149.78711 A 8.1259846 8.1259846 0 0 0 411.83594 149.75195 A 8.1259846 8.1259846 0 0 0 411.8457 149.74805 A 8.1259846 8.1259846 0 0 0 412.06641 149.6875 A 8.1259846 8.1259846 0 0 0 412.1582 149.66016 A 8.1259846 8.1259846 0 0 0 412.29492 149.61719 A 8.1259846 8.1259846 0 0 0 412.32227 149.60742 A 8.1259846 8.1259846 0 0 0 412.45508 149.5625 A 8.1259846 8.1259846 0 0 0 412.61133 149.50586 A 8.1259846 8.1259846 0 0 0 412.74609 149.45508 A 8.1259846 8.1259846 0 0 0 412.83398 149.41992 A 8.1259846 8.1259846 0 0 0 412.96875 149.36328 A 8.1259846 8.1259846 0 0 0 413.05469 149.32617 A 8.1259846 8.1259846 0 0 0 413.4043 149.16211 A 8.1259846 8.1259846 0 0 0 413.48828 149.11914 A 8.1259846 8.1259846 0 0 0 413.50195 149.11328 A 8.1259846 8.1259846 0 0 0 413.69922 149.00781 A 8.1259846 8.1259846 0 0 0 413.82617 148.93555 A 8.1259846 8.1259846 0 0 0 413.9082 148.88867 A 8.1259846 8.1259846 0 0 0 413.95312 148.86133 A 8.1259846 8.1259846 0 0 0 414.11328 148.76367 A 8.1259846 8.1259846 0 0 0 414.23438 148.68555 A 8.1259846 8.1259846 0 0 0 414.3125 148.63281 A 8.1259846 8.1259846 0 0 0 414.32031 148.62891 A 8.1259846 8.1259846 0 0 0 414.50977 148.49609 A 8.1259846 8.1259846 0 0 0 414.62695 148.41016 A 8.1259846 8.1259846 0 0 0 414.70312 148.35352 A 8.1259846 8.1259846 0 0 0 414.81836 148.26367 A 8.1259846 8.1259846 0 0 0 415.07422 148.05273 A 8.1259846 8.1259846 0 0 0 415.18359 147.95703 A 8.1259846 8.1259846 0 0 0 415.40039 147.75586 L 415.42969 147.72852 A 8.1259846 8.1259846 0 0 0 415.44922 147.70898 L 533.10156 34.779297 L 532.91992 175.77734 A 8.1259846 8.1259846 0 0 0 532.91992 175.78711 A 8.1259846 8.1259846 0 0 0 532.91992 175.79297 L 533.10156 316.79102 L 512.13477 296.66406 L 415.48633 203.89844 L 415.46875 203.87891 A 8.1259846 8.1259846 0 0 0 415.45117 203.86133 A 8.1267972 8.1267972 0 0 0 415.40039 203.81445 A 8.1267972 8.1267972 0 0 0 415.39258 203.80664 A 8.1259846 8.1259846 0 0 0 415.27734 203.69727 A 8.1267972 8.1267972 0 0 0 415.22656 203.65039 A 8.1259846 8.1259846 0 0 0 415.14648 203.58203 A 8.1267972 8.1267972 0 0 0 415.11719 203.55469 A 8.1259846 8.1259846 0 0 0 415.11523 203.55273 A 8.1259846 8.1259846 0 0 0 415.11133 203.55078 A 8.1259846 8.1259846 0 0 0 415.09766 203.53711 A 8.1267972 8.1267972 0 0 0 415.04492 203.49219 A 8.1267972 8.1267972 0 0 0 415.00195 203.45703 A 8.1259846 8.1259846 0 0 0 414.98828 203.44531 A 8.1267972 8.1267972 0 0 0 414.98438 203.44141 A 8.1259846 8.1259846 0 0 0 414.93359 203.39844 A 8.1259846 8.1259846 0 0 0 414.91406 203.38281 A 8.1267972 8.1267972 0 0 0 414.91211 203.38086 A 8.1267972 8.1267972 0 0 0 414.88477 203.35938 A 8.1259846 8.1259846 0 0 0 414.87891 203.35352 A 8.1259846 8.1259846 0 0 0 414.86133 203.33984 A 8.1267972 8.1267972 0 0 0 414.77344 203.27148 A 8.1259846 8.1259846 0 0 0 414.74609 203.25 A 8.1259846 8.1259846 0 0 0 414.72656 203.23438 A 8.1267972 8.1267972 0 0 0 414.68945 203.20703 A 8.1259846 8.1259846 0 0 0 414.68555 203.20312 A 8.1259846 8.1259846 0 0 0 414.67188 203.19336 A 8.1267972 8.1267972 0 0 0 414.64648 203.17383 A 8.1259846 8.1259846 0 0 0 414.5332 203.0918 A 8.1267972 8.1267972 0 0 0 414.51953 203.08008 A 8.1259846 8.1259846 0 0 0 414.50586 203.07031 A 8.1259846 8.1259846 0 0 0 414.47852 203.05078 A 8.1267972 8.1267972 0 0 0 414.35938 202.96875 A 8.1259846 8.1259846 0 0 0 414.33789 202.95312 A 8.1267972 8.1267972 0 0 0 414.28125 202.91602 A 8.1267972 8.1267972 0 0 0 414.16016 202.83789 A 8.1259846 8.1259846 0 0 0 414.1582 202.83594 A 8.1259846 8.1259846 0 0 0 414.13672 202.82227 A 8.1267972 8.1267972 0 0 0 414.08008 202.78516 A 8.1259846 8.1259846 0 0 0 414.07812 202.78516 A 8.1267972 8.1267972 0 0 0 413.95508 202.70898 A 8.1259846 8.1259846 0 0 0 413.93359 202.69727 A 8.1267972 8.1267972 0 0 0 413.87305 202.66211 A 8.1267972 8.1267972 0 0 0 413.79102 202.61523 A 8.1259846 8.1259846 0 0 0 413.72461 202.57617 A 8.1267972 8.1267972 0 0 0 413.66602 202.54297 A 8.1259846 8.1259846 0 0 0 413.66406 202.54297 A 8.1267972 8.1267972 0 0 0 413.61523 202.51758 A 8.1259846 8.1259846 0 0 0 413.58984 202.50391 A 8.1267972 8.1267972 0 0 0 413.56641 202.49023 A 8.1259846 8.1259846 0 0 0 413.53711 202.47461 A 8.1259846 8.1259846 0 0 0 413.51367 202.46289 A 8.1267972 8.1267972 0 0 0 413.49609 202.45312 A 8.1259846 8.1259846 0 0 0 413.49414 202.45312 A 8.1267972 8.1267972 0 0 0 413.32227 202.36719 A 8.1259846 8.1259846 0 0 0 413.32031 202.36719 A 8.1259846 8.1259846 0 0 0 413.3125 202.36328 A 8.1267972 8.1267972 0 0 0 413.10547 202.26562 A 8.1259846 8.1259846 0 0 0 413.08203 202.25586 A 8.1267972 8.1267972 0 0 0 413.07617 202.25391 A 8.1259846 8.1259846 0 0 0 413.07422 202.25391 A 8.1259846 8.1259846 0 0 0 413.01953 202.22852 A 8.1267972 8.1267972 0 0 0 413 202.2207 A 8.1259846 8.1259846 0 0 0 412.88477 202.17188 A 8.1259846 8.1259846 0 0 0 412.86133 202.16211 A 8.1267972 8.1267972 0 0 0 412.82812 202.14844 A 8.1259846 8.1259846 0 0 0 412.6543 202.08008 A 8.1259846 8.1259846 0 0 0 412.63867 202.07422 A 8.1259846 8.1259846 0 0 0 412.5 202.02344 A 8.1267972 8.1267972 0 0 0 412.41797 201.99414 A 8.1259846 8.1259846 0 0 0 412.41406 201.99219 A 8.1267972 8.1267972 0 0 0 412.21094 201.92578 A 8.1259846 8.1259846 0 0 0 412.18555 201.91797 A 8.1267972 8.1267972 0 0 0 412.11914 201.89844 A 8.1267972 8.1267972 0 0 0 412.10938 201.89453 A 8.1259846 8.1259846 0 0 0 411.98047 201.85742 A 8.1259846 8.1259846 0 0 0 411.96289 201.85352 A 8.1259846 8.1259846 0 0 0 411.95508 201.85156 A 8.1267972 8.1267972 0 0 0 411.92188 201.8418 A 8.1259846 8.1259846 0 0 0 411.91602 201.83984 A 8.1259846 8.1259846 0 0 0 411.88867 201.83203 A 8.1267972 8.1267972 0 0 0 411.83789 201.81836 A 8.1259846 8.1259846 0 0 0 411.78906 201.80664 A 8.1267972 8.1267972 0 0 0 411.72266 201.78906 A 8.1267972 8.1267972 0 0 0 411.65625 201.77344 A 8.1259846 8.1259846 0 0 0 411.49023 201.73633 A 8.1259846 8.1259846 0 0 0 411.29492 201.69531 A 8.1267972 8.1267972 0 0 0 411.28125 201.69336 A 8.1259846 8.1259846 0 0 0 411.27539 201.69141 A 8.1267972 8.1267972 0 0 0 411.25586 201.68945 A 8.1259846 8.1259846 0 0 0 411.02539 201.65039 A 8.1259846 8.1259846 0 0 0 411.01953 201.64844 A 8.1267972 8.1267972 0 0 0 410.95117 201.63867 A 8.1259846 8.1259846 0 0 0 410.94922 201.63867 A 8.1259846 8.1259846 0 0 0 410.78125 201.61523 A 8.1267972 8.1267972 0 0 0 410.74023 201.60938 A 8.1259846 8.1259846 0 0 0 410.73438 201.60938 A 8.1259846 8.1259846 0 0 0 410.72656 201.60938 A 8.1267972 8.1267972 0 0 0 410.71289 201.60742 A 8.1259846 8.1259846 0 0 0 410.56836 201.5918 A 8.1267972 8.1267972 0 0 0 410.54297 201.58984 A 8.1259846 8.1259846 0 0 0 410.32422 201.57227 A 8.1259846 8.1259846 0 0 0 410.32227 201.57227 A 8.1259846 8.1259846 0 0 0 410.30469 201.57031 A 8.1267972 8.1267972 0 0 0 410.27734 201.56836 A 8.1259846 8.1259846 0 0 0 410.24805 201.56641 A 8.1267972 8.1267972 0 0 0 410.24414 201.56641 A 8.1259846 8.1259846 0 0 0 410.23438 201.56641 A 8.1259846 8.1259846 0 0 0 410.2168 201.56641 A 8.1259846 8.1259846 0 0 0 410.14258 201.5625 A 8.1259846 8.1259846 0 0 0 409.92969 201.55469 A 8.1259846 8.1259846 0 0 0 409.77734 201.55273 A 8.1267972 8.1267972 0 0 0 409.70703 201.55273 A 8.1259846 8.1259846 0 0 0 409.4668 201.55859 A 8.1267972 8.1267972 0 0 0 409.42383 201.56055 A 8.1259846 8.1259846 0 0 0 409.37109 201.5625 A 8.1267972 8.1267972 0 0 0 409.31445 201.56641 A 8.1259846 8.1259846 0 0 0 409.27734 201.56836 A 8.1267972 8.1267972 0 0 0 409.22656 201.57227 A 8.1259846 8.1259846 0 0 0 409.22461 201.57227 A 8.1259846 8.1259846 0 0 0 409.22266 201.57227 A 8.1259846 8.1259846 0 0 0 409.18945 201.57422 A 8.1259846 8.1259846 0 0 0 409.13281 201.57812 A 8.1259846 8.1259846 0 0 0 409.03906 201.58594 A 8.1259846 8.1259846 0 0 0 408.98828 201.5918 A 8.1259846 8.1259846 0 0 0 408.96875 201.59375 A 8.1259846 8.1259846 0 0 0 408.83398 201.60742 A 8.1259846 8.1259846 0 0 0 408.80078 201.61133 A 8.1259846 8.1259846 0 0 0 408.75 201.61914 A 8.1267972 8.1267972 0 0 0 408.73633 201.62109 A 8.1259846 8.1259846 0 0 0 408.69141 201.62695 A 8.1259846 8.1259846 0 0 0 408.65625 201.63086 A 8.1259846 8.1259846 0 0 0 408.60352 201.63867 A 8.1259846 8.1259846 0 0 0 408.5625 201.64453 A 8.1259846 8.1259846 0 0 0 408.53125 201.65039 A 8.1259846 8.1259846 0 0 0 408.51172 201.65234 A 8.1259846 8.1259846 0 0 0 408.50977 201.65234 A 8.1267972 8.1267972 0 0 0 408.49805 201.6543 A 8.1259846 8.1259846 0 0 0 408.3418 201.68164 A 8.1259846 8.1259846 0 0 0 408.27539 201.69336 A 8.1259846 8.1259846 0 0 0 408.27344 201.69336 A 8.1267972 8.1267972 0 0 0 408.20312 201.70703 A 8.1259846 8.1259846 0 0 0 408.18359 201.71094 A 8.1267972 8.1267972 0 0 0 408.14648 201.71875 A 8.1259846 8.1259846 0 0 0 408.03906 201.74023 A 8.1267972 8.1267972 0 0 0 408.02734 201.74414 A 8.1259846 8.1259846 0 0 0 408.00977 201.74805 A 8.1259846 8.1259846 0 0 0 407.82422 201.79102 A 8.1267972 8.1267972 0 0 0 407.80078 201.79688 A 8.1267972 8.1267972 0 0 0 407.77734 201.80273 A 8.1259846 8.1259846 0 0 0 407.7168 201.81836 A 8.1267972 8.1267972 0 0 0 407.71094 201.82031 A 8.1259846 8.1259846 0 0 0 407.35156 201.92188 A 8.1267972 8.1267972 0 0 0 407.3457 201.92383 A 8.1259846 8.1259846 0 0 0 407.34375 201.92383 A 8.1267972 8.1267972 0 0 0 407.33203 201.92969 A 8.1259846 8.1259846 0 0 0 407.26172 201.95117 A 8.1259846 8.1259846 0 0 0 407.25195 201.95508 A 8.1259846 8.1259846 0 0 0 407.13086 201.99609 A 8.1267972 8.1267972 0 0 0 407.11914 202 A 8.1259846 8.1259846 0 0 0 407.10547 202.00391 A 8.1267972 8.1267972 0 0 0 407.06641 202.01758 A 8.1259846 8.1259846 0 0 0 407.0293 202.03125 A 8.1259846 8.1259846 0 0 0 406.83789 202.10352 A 8.1259846 8.1259846 0 0 0 406.76953 202.13086 A 8.1259846 8.1259846 0 0 0 406.7168 202.15039 A 8.1259846 8.1259846 0 0 0 406.68164 202.16602 A 8.1259846 8.1259846 0 0 0 406.67383 202.16797 A 8.1267972 8.1267972 0 0 0 406.66992 202.16992 A 8.1259846 8.1259846 0 0 0 406.66406 202.17188 A 8.1267972 8.1267972 0 0 0 406.66211 202.17383 A 8.1259846 8.1259846 0 0 0 406.66016 202.17383 A 8.1267972 8.1267972 0 0 0 406.65625 202.17578 A 8.1259846 8.1259846 0 0 0 406.49023 202.24609 A 8.1267972 8.1267972 0 0 0 406.41211 202.28125 A 8.1259846 8.1259846 0 0 0 406.30273 202.33398 A 8.1259846 8.1259846 0 0 0 406.26562 202.35156 A 8.1267972 8.1267972 0 0 0 406.19922 202.38281 A 8.1259846 8.1259846 0 0 0 406.07422 202.44531 A 8.1259846 8.1259846 0 0 0 406.03906 202.46289 A 8.1267972 8.1267972 0 0 0 406.01953 202.47266 A 8.1267972 8.1267972 0 0 0 406.00586 202.48047 A 8.1267972 8.1267972 0 0 0 405.88477 202.54688 A 8.1259846 8.1259846 0 0 0 405.82227 202.58008 A 8.1267972 8.1267972 0 0 0 405.80859 202.58789 A 8.1259846 8.1259846 0 0 0 405.80664 202.58984 A 8.1259846 8.1259846 0 0 0 405.80273 202.5918 A 8.1259846 8.1259846 0 0 0 405.80078 202.5918 A 8.1267972 8.1267972 0 0 0 405.79688 202.59375 A 8.1267972 8.1267972 0 0 0 405.79492 202.5957 A 8.1259846 8.1259846 0 0 0 405.64844 202.67969 A 8.1259846 8.1259846 0 0 0 405.63477 202.6875 A 8.1259846 8.1259846 0 0 0 405.60547 202.70508 A 8.1267972 8.1267972 0 0 0 405.60156 202.70703 A 8.1267972 8.1267972 0 0 0 405.57617 202.72266 A 8.1259846 8.1259846 0 0 0 405.47852 202.7832 A 8.1259846 8.1259846 0 0 0 405.43945 202.80664 A 8.1259846 8.1259846 0 0 0 405.42969 202.8125 A 8.1267972 8.1267972 0 0 0 405.39648 202.83398 A 8.1267972 8.1267972 0 0 0 405.38477 202.8418 A 8.1267972 8.1267972 0 0 0 405.35742 202.85938 A 8.1259846 8.1259846 0 0 0 405.28906 202.9043 A 8.1259846 8.1259846 0 0 0 405.23047 202.94336 A 8.1267972 8.1267972 0 0 0 405.18555 202.97461 A 8.1259846 8.1259846 0 0 0 405.17773 202.98047 A 8.1259846 8.1259846 0 0 0 405.07031 203.05469 A 8.1259846 8.1259846 0 0 0 405.04297 203.07422 A 8.1267972 8.1267972 0 0 0 405 203.10352 A 8.1267972 8.1267972 0 0 0 404.98828 203.11328 A 8.1267972 8.1267972 0 0 0 404.96289 203.13086 A 8.1259846 8.1259846 0 0 0 404.92383 203.16016 A 8.1267972 8.1267972 0 0 0 404.89844 203.17969 A 8.1259846 8.1259846 0 0 0 404.84961 203.2168 A 8.1259846 8.1259846 0 0 0 404.81836 203.24023 A 8.1267972 8.1267972 0 0 0 404.80859 203.24805 A 8.1267972 8.1267972 0 0 0 404.76953 203.27734 A 8.1259846 8.1259846 0 0 0 404.73438 203.30469 A 8.1267972 8.1267972 0 0 0 404.67578 203.35156 A 8.1259846 8.1259846 0 0 0 404.66016 203.36523 A 8.1267972 8.1267972 0 0 0 404.65625 203.36914 A 8.1259846 8.1259846 0 0 0 404.64844 203.375 A 8.1267972 8.1267972 0 0 0 404.61133 203.4043 A 8.1267972 8.1267972 0 0 0 404.60938 203.40625 A 8.1267972 8.1267972 0 0 0 404.59961 203.41406 A 8.1259846 8.1259846 0 0 0 404.54883 203.45703 A 8.1267972 8.1267972 0 0 0 404.50195 203.49609 A 8.1259846 8.1259846 0 0 0 404.4707 203.52344 A 8.1267972 8.1267972 0 0 0 404.4375 203.55078 A 8.1267972 8.1267972 0 0 0 404.42773 203.56055 A 8.1267972 8.1267972 0 0 0 404.41016 203.57617 A 8.1259846 8.1259846 0 0 0 404.3125 203.66406 A 8.1259846 8.1259846 0 0 0 404.29297 203.68164 A 8.1267972 8.1267972 0 0 0 404.20117 203.76562 A 8.1259846 8.1259846 0 0 0 404.19141 203.77539 A 8.1267972 8.1267972 0 0 0 404.15039 203.81445 A 8.1259846 8.1259846 0 0 0 404.12305 203.8418 L 404.07617 203.88672 L 363.67969 242.66211 L 286.44336 316.79688 L 286.63086 175.83984 A 8.1259846 8.1259846 0 0 0 286.63086 175.77734 L 286.44336 34.771484 z M 664.63672 228.7207 L 664.82031 369.77734 L 664.63672 510.83398 L 546.88672 397.81055 A 8.1259846 8.1259846 0 0 0 542.98242 395.73047 A 8.1267972 8.1267972 0 0 0 542.97266 395.72852 A 8.1267972 8.1267972 0 0 0 542.95703 395.72656 A 8.1259846 8.1259846 0 0 0 542.4375 395.63086 A 8.1267972 8.1267972 0 0 0 542.20117 395.59961 A 8.1259846 8.1259846 0 0 0 542.04297 395.58398 A 8.1267972 8.1267972 0 0 0 541.96289 395.57617 A 8.1259846 8.1259846 0 0 0 541.85547 395.56836 A 8.1267972 8.1267972 0 0 0 541.72266 395.55859 A 8.1259846 8.1259846 0 0 0 541.625 395.55469 A 8.1267972 8.1267972 0 0 0 541.52148 395.55078 A 8.1267972 8.1267972 0 0 0 541.30664 395.54688 A 8.1259846 8.1259846 0 0 0 541.00391 395.54883 A 8.1267972 8.1267972 0 0 0 540.94531 395.55078 A 8.1267972 8.1267972 0 0 0 540.92773 395.55273 A 8.1267972 8.1267972 0 0 0 540.81836 395.55859 A 8.1259846 8.1259846 0 0 0 540.75 395.5625 A 8.1267972 8.1267972 0 0 0 540.61328 395.57227 A 8.1259846 8.1259846 0 0 0 540.50781 395.58008 A 8.1267972 8.1267972 0 0 0 540.48047 395.58203 A 8.1267972 8.1267972 0 0 0 540.4668 395.58398 A 8.1267972 8.1267972 0 0 0 540.37305 395.59375 A 8.1259846 8.1259846 0 0 0 540.28711 395.60352 A 8.1267972 8.1267972 0 0 0 540.0957 395.62891 A 8.1259846 8.1259846 0 0 0 540.00586 395.64258 A 8.1267972 8.1267972 0 0 0 539.93164 395.6543 A 8.1259846 8.1259846 0 0 0 539.76953 395.68359 A 8.1267972 8.1267972 0 0 0 539.75391 395.68555 A 8.1259846 8.1259846 0 0 0 539.57812 395.7207 A 8.1267972 8.1267972 0 0 0 539.53516 395.73047 A 8.1267972 8.1267972 0 0 0 538.67773 395.96484 A 8.1259846 8.1259846 0 0 0 538.61133 395.98828 A 8.1267972 8.1267972 0 0 0 538.51562 396.02148 A 8.1259846 8.1259846 0 0 0 538.39844 396.06445 A 8.1267972 8.1267972 0 0 0 538.37109 396.07422 A 8.1259846 8.1259846 0 0 0 538.20508 396.14062 A 8.1267972 8.1267972 0 0 0 535.46484 397.9707 L 417.92969 510.78711 L 418.10938 369.82227 A 8.1259846 8.1259846 0 0 0 418.10938 369.76562 L 417.92969 228.76953 L 535.38672 341.50781 A 8.1267972 8.1267972 0 0 0 544.88086 343.1582 A 8.1259846 8.1259846 0 0 0 544.89844 343.15039 A 8.1267972 8.1267972 0 0 0 545.30469 342.93164 A 8.1259846 8.1259846 0 0 0 545.32031 342.92383 A 8.1267972 8.1267972 0 0 0 545.91211 342.54688 A 8.1259846 8.1259846 0 0 0 545.92578 342.53711 A 8.1267972 8.1267972 0 0 0 546.29688 342.25977 A 8.1259846 8.1259846 0 0 0 546.31055 342.25 A 8.1267972 8.1267972 0 0 0 546.48242 342.10938 A 8.1259846 8.1259846 0 0 0 546.49609 342.09766 A 8.1267972 8.1267972 0 0 0 546.66406 341.95117 A 8.1259846 8.1259846 0 0 0 546.67578 341.93945 A 8.1267972 8.1267972 0 0 0 546.76562 341.85742 A 8.1259846 8.1259846 0 0 0 546.85352 341.77734 A 8.1267972 8.1267972 0 0 0 546.88672 341.74414 L 664.63672 228.7207 z M 154.91602 228.72266 L 272.59766 341.67969 L 272.66406 341.74414 A 8.1259846 8.1259846 0 0 0 272.71484 341.79102 A 8.1267972 8.1267972 0 0 0 272.73242 341.80664 A 8.1259846 8.1259846 0 0 0 272.79688 341.86914 A 8.1259846 8.1259846 0 0 0 272.83984 341.9082 A 8.1259846 8.1259846 0 0 0 272.94922 342.00391 A 8.1259846 8.1259846 0 0 0 273.07031 342.10938 A 8.1259846 8.1259846 0 0 0 273.35742 342.33789 A 8.1259846 8.1259846 0 0 0 273.43359 342.39453 A 8.1259846 8.1259846 0 0 0 273.75977 342.62695 A 8.1259846 8.1259846 0 0 0 273.81055 342.66016 A 8.1259846 8.1259846 0 0 0 274.15625 342.87695 A 8.1259846 8.1259846 0 0 0 274.22656 342.91797 A 8.1259846 8.1259846 0 0 0 274.59961 343.12109 A 8.1259846 8.1259846 0 0 0 274.61133 343.12695 A 8.1267972 8.1267972 0 0 0 274.61328 343.12695 A 8.1259846 8.1259846 0 0 0 274.62305 343.13281 A 8.1259846 8.1259846 0 0 0 274.82617 343.23242 A 8.1267972 8.1267972 0 0 0 274.82812 343.23242 A 8.1259846 8.1259846 0 0 0 275.02539 343.32227 A 8.1259846 8.1259846 0 0 0 275.04492 343.33203 A 8.1259846 8.1259846 0 0 0 275.17969 343.38867 A 8.1259846 8.1259846 0 0 0 275.38281 343.4707 A 8.1259846 8.1259846 0 0 0 275.42578 343.48828 A 8.1259846 8.1259846 0 0 0 275.54492 343.53125 A 8.1259846 8.1259846 0 0 0 275.71094 343.58789 A 8.1259846 8.1259846 0 0 0 275.73047 343.59375 A 8.1259846 8.1259846 0 0 0 275.91797 343.6543 A 8.1259846 8.1259846 0 0 0 275.98828 343.67383 A 8.1259846 8.1259846 0 0 0 276.13867 343.71875 A 8.1259846 8.1259846 0 0 0 276.21875 343.73828 A 8.1259846 8.1259846 0 0 0 276.61914 343.83398 A 8.1259846 8.1259846 0 0 0 276.66211 343.84375 A 8.1259846 8.1259846 0 0 0 277.08984 343.91992 A 8.1259846 8.1259846 0 0 0 277.1875 343.93359 A 8.1259846 8.1259846 0 0 0 277.29297 343.94727 A 8.1259846 8.1259846 0 0 0 277.41016 343.96094 A 8.1259846 8.1259846 0 0 0 277.58984 343.97852 A 8.1259846 8.1259846 0 0 0 277.60547 343.98047 A 8.1259846 8.1259846 0 0 0 277.79688 343.99414 A 8.1259846 8.1259846 0 0 0 277.85938 343.99805 A 8.1259846 8.1259846 0 0 0 278.27734 344.00977 A 8.1259846 8.1259846 0 0 0 278.30859 344.00977 A 8.1259846 8.1259846 0 0 0 278.40234 344.00781 A 8.1259846 8.1259846 0 0 0 278.45312 344.00781 A 8.1259846 8.1259846 0 0 0 278.47852 344.00781 A 8.1259846 8.1259846 0 0 0 278.61328 344.00195 A 8.1259846 8.1259846 0 0 0 278.82227 343.99219 A 8.1259846 8.1259846 0 0 0 278.93164 343.98438 A 8.1259846 8.1259846 0 0 0 279.02539 343.97656 A 8.1259846 8.1259846 0 0 0 279.06445 343.97266 A 8.1259846 8.1259846 0 0 0 279.50195 343.91992 A 8.1259846 8.1259846 0 0 0 279.64453 343.89648 A 8.1259846 8.1259846 0 0 0 279.65234 343.89453 A 8.1259846 8.1259846 0 0 0 279.88086 343.85352 A 8.1259846 8.1259846 0 0 0 279.97461 343.83398 A 8.1259846 8.1259846 0 0 0 280.11523 343.80273 A 8.1259846 8.1259846 0 0 0 280.20703 343.78125 A 8.1259846 8.1259846 0 0 0 280.25977 343.76758 A 8.1259846 8.1259846 0 0 0 280.43945 343.7207 A 8.1259846 8.1259846 0 0 0 280.44531 343.71875 A 8.1259846 8.1259846 0 0 0 280.70508 343.64258 A 8.1259846 8.1259846 0 0 0 280.80859 343.61133 A 8.1259846 8.1259846 0 0 0 280.83984 343.60156 A 8.1259846 8.1259846 0 0 0 281.25977 343.44922 A 8.1259846 8.1259846 0 0 0 281.29102 343.43555 A 8.1259846 8.1259846 0 0 0 281.47852 343.35742 A 8.1267972 8.1267972 0 0 0 281.48047 343.35742 A 8.1259846 8.1259846 0 0 0 281.51367 343.34375 A 8.1267972 8.1267972 0 0 0 281.52344 343.33984 A 8.1259846 8.1259846 0 0 0 281.56836 343.32031 A 8.1259846 8.1259846 0 0 0 281.60742 343.30273 A 8.1259846 8.1259846 0 0 0 281.94727 343.14062 A 8.1267972 8.1267972 0 0 0 281.9707 343.12891 A 8.1259846 8.1259846 0 0 0 282 343.11523 A 8.1259846 8.1259846 0 0 0 282.12891 343.04688 A 8.1259846 8.1259846 0 0 0 282.16016 343.0293 A 8.1267972 8.1267972 0 0 0 282.16406 343.02734 A 8.1259846 8.1259846 0 0 0 282.21289 343.00195 A 8.1259846 8.1259846 0 0 0 282.24609 342.98242 A 8.1259846 8.1259846 0 0 0 282.41992 342.88281 A 8.1259846 8.1259846 0 0 0 282.54492 342.80859 A 8.1259846 8.1259846 0 0 0 282.56836 342.79492 A 8.1259846 8.1259846 0 0 0 282.94531 342.54688 A 8.1259846 8.1259846 0 0 0 283.02344 342.49219 A 8.1259846 8.1259846 0 0 0 283.14062 342.40625 A 8.1259846 8.1259846 0 0 0 283.1543 342.39648 A 8.1259846 8.1259846 0 0 0 283.33008 342.25977 A 8.1259846 8.1259846 0 0 0 283.35742 342.23828 A 8.1267972 8.1267972 0 0 0 283.4043 342.20117 A 8.1259846 8.1259846 0 0 0 283.42773 342.17969 A 8.1259846 8.1259846 0 0 0 283.54297 342.08594 A 8.1267972 8.1267972 0 0 0 283.58789 342.04688 A 8.1259846 8.1259846 0 0 0 283.69727 341.95117 A 8.1259846 8.1259846 0 0 0 283.72461 341.92773 A 8.1267972 8.1267972 0 0 0 283.76758 341.88867 A 8.1259846 8.1259846 0 0 0 283.875 341.78906 A 8.1259846 8.1259846 0 0 0 283.90039 341.76562 A 8.1267972 8.1267972 0 0 0 283.90039 341.76367 A 8.1259846 8.1259846 0 0 0 283.92188 341.74414 A 8.1259846 8.1259846 0 0 0 283.9707 341.69727 L 401.62305 228.76758 L 401.44141 369.73047 A 8.1259846 8.1259846 0 0 0 401.44141 369.73242 A 8.1259846 8.1259846 0 0 0 401.44141 369.78906 L 401.62305 510.78711 L 284.00781 397.89453 L 283.99805 397.88281 L 283.99023 397.875 A 8.1259846 8.1259846 0 0 0 283.79297 397.69141 A 8.1267972 8.1267972 0 0 0 283.78516 397.68359 A 8.1259846 8.1259846 0 0 0 283.74609 397.64648 A 8.1259846 8.1259846 0 0 0 283.63867 397.55078 A 8.1259846 8.1259846 0 0 0 283.59961 397.51758 A 8.1259846 8.1259846 0 0 0 283.56641 397.48828 A 8.1259846 8.1259846 0 0 0 283.45508 397.39453 A 8.1259846 8.1259846 0 0 0 283.38281 397.33594 A 8.1259846 8.1259846 0 0 0 283.09375 397.11523 A 8.1267972 8.1267972 0 0 0 283.07617 397.10156 A 8.1259846 8.1259846 0 0 0 283 397.04688 A 8.1259846 8.1259846 0 0 0 282.88086 396.96289 A 8.1259846 8.1259846 0 0 0 282.80273 396.91016 A 8.1259846 8.1259846 0 0 0 282.77734 396.89453 A 8.1259846 8.1259846 0 0 0 282.60156 396.78125 A 8.1259846 8.1259846 0 0 0 282.26953 396.58398 A 8.1259846 8.1259846 0 0 0 282.1875 396.53906 A 8.1259846 8.1259846 0 0 0 282.125 396.50781 A 8.1267972 8.1267972 0 0 0 282.08594 396.48633 A 8.1267972 8.1267972 0 0 0 282.05859 396.4707 A 8.1259846 8.1259846 0 0 0 281.54102 396.22266 A 8.1259846 8.1259846 0 0 0 281.4082 396.16602 A 8.1259846 8.1259846 0 0 0 281.39844 396.16211 A 8.1259846 8.1259846 0 0 0 281.18555 396.07617 A 8.1259846 8.1259846 0 0 0 281.09766 396.04297 A 8.1259846 8.1259846 0 0 0 281.04297 396.02344 A 8.1259846 8.1259846 0 0 0 280.87109 395.96484 A 8.1259846 8.1259846 0 0 0 280.82227 395.94922 A 8.1267972 8.1267972 0 0 0 280.73242 395.91992 A 8.1259846 8.1259846 0 0 0 280.70312 395.91211 A 8.1267972 8.1267972 0 0 0 280.69727 395.91016 A 8.1259846 8.1259846 0 0 0 280.64258 395.89258 A 8.1259846 8.1259846 0 0 0 280.54297 395.86328 A 8.1267972 8.1267972 0 0 0 280.50195 395.85156 A 8.1259846 8.1259846 0 0 0 280.47852 395.8457 A 8.1267972 8.1267972 0 0 0 280.47266 395.84375 A 8.1259846 8.1259846 0 0 0 280.41211 395.82617 A 8.1259846 8.1259846 0 0 0 280.35742 395.8125 A 8.1259846 8.1259846 0 0 0 280.17969 395.76758 A 8.1259846 8.1259846 0 0 0 280.03711 395.73438 A 8.1267972 8.1267972 0 0 0 279.99219 395.72461 A 8.1259846 8.1259846 0 0 0 279.94531 395.71484 A 8.1259846 8.1259846 0 0 0 279.92188 395.71094 A 8.1259846 8.1259846 0 0 0 279.70898 395.66992 A 8.1259846 8.1259846 0 0 0 279.41211 395.62305 A 8.1259846 8.1259846 0 0 0 279.39453 395.62109 A 8.1267972 8.1267972 0 0 0 279.30859 395.60938 A 8.1259846 8.1259846 0 0 0 279.29883 395.60938 A 8.1267972 8.1267972 0 0 0 279.29102 395.60742 A 8.1259846 8.1259846 0 0 0 279.23633 395.59961 A 8.1259846 8.1259846 0 0 0 279.17773 395.59375 A 8.1259846 8.1259846 0 0 0 279.00586 395.57617 A 8.1267972 8.1267972 0 0 0 278.99805 395.57617 A 8.1267972 8.1267972 0 0 0 278.99609 395.57617 A 8.1259846 8.1259846 0 0 0 278.85352 395.56445 A 8.1267972 8.1267972 0 0 0 278.82812 395.5625 A 8.1259846 8.1259846 0 0 0 278.82227 395.5625 A 8.1267972 8.1267972 0 0 0 278.75781 395.55859 A 8.1259846 8.1259846 0 0 0 278.73242 395.55664 A 8.1259846 8.1259846 0 0 0 278.58203 395.55078 A 8.1267972 8.1267972 0 0 0 278.51758 395.54883 A 8.1259846 8.1259846 0 0 0 278.31055 395.54492 A 8.1259846 8.1259846 0 0 0 278.2793 395.54492 A 8.1267972 8.1267972 0 0 0 278.10938 395.54688 A 8.1259846 8.1259846 0 0 0 278.03906 395.54883 A 8.1267972 8.1267972 0 0 0 277.98633 395.55078 A 8.1259846 8.1259846 0 0 0 277.97852 395.55078 A 8.1267972 8.1267972 0 0 0 277.96094 395.55273 A 8.1267972 8.1267972 0 0 0 277.9375 395.55273 A 8.1259846 8.1259846 0 0 0 277.81641 395.56055 A 8.1267972 8.1267972 0 0 0 277.80078 395.56055 A 8.1259846 8.1259846 0 0 0 277.77148 395.5625 A 8.1267972 8.1267972 0 0 0 277.74805 395.56445 A 8.1259846 8.1259846 0 0 0 277.59766 395.57617 A 8.1267972 8.1267972 0 0 0 277.58984 395.57617 A 8.1259846 8.1259846 0 0 0 277.53711 395.58008 A 8.1267972 8.1267972 0 0 0 277.46875 395.58789 A 8.1259846 8.1259846 0 0 0 277.27148 395.60938 A 8.1267972 8.1267972 0 0 0 277.25977 395.61133 A 8.1259846 8.1259846 0 0 0 277.08594 395.63477 A 8.1259846 8.1259846 0 0 0 277.05273 395.64062 A 8.1267972 8.1267972 0 0 0 277.04102 395.64258 A 8.1259846 8.1259846 0 0 0 276.99609 395.65039 A 8.1259846 8.1259846 0 0 0 276.91406 395.66406 A 8.1259846 8.1259846 0 0 0 276.78516 395.6875 A 8.1259846 8.1259846 0 0 0 276.61328 395.7207 A 8.1259846 8.1259846 0 0 0 276.57031 395.73047 A 8.1267972 8.1267972 0 0 0 276.5625 395.73242 A 8.1267972 8.1267972 0 0 0 276.55664 395.73438 A 8.1259846 8.1259846 0 0 0 276.42578 395.76367 A 8.1259846 8.1259846 0 0 0 276.33203 395.78516 A 8.1267972 8.1267972 0 0 0 276.32812 395.78711 A 8.1259846 8.1259846 0 0 0 276.14844 395.83398 A 8.1267972 8.1267972 0 0 0 276.14648 395.83398 A 8.1259846 8.1259846 0 0 0 276.12695 395.83984 A 8.1267972 8.1267972 0 0 0 276.10352 395.8457 A 8.1267972 8.1267972 0 0 0 276.07422 395.85547 A 8.1267972 8.1267972 0 0 0 276.04492 395.86328 A 8.1259846 8.1259846 0 0 0 275.94141 395.89453 A 8.1267972 8.1267972 0 0 0 275.93359 395.89648 A 8.1267972 8.1267972 0 0 0 275.92969 395.89648 A 8.1259846 8.1259846 0 0 0 275.88281 395.91211 A 8.1267972 8.1267972 0 0 0 275.875 395.91406 A 8.1267972 8.1267972 0 0 0 275.84375 395.92383 A 8.1259846 8.1259846 0 0 0 275.74805 395.95312 A 8.1259846 8.1259846 0 0 0 275.34961 396.09766 A 8.1259846 8.1259846 0 0 0 275.27539 396.12695 A 8.1259846 8.1259846 0 0 0 275.22656 396.14648 A 8.1259846 8.1259846 0 0 0 275.20508 396.1543 A 8.1267972 8.1267972 0 0 0 275.19336 396.16016 A 8.1259846 8.1259846 0 0 0 275.01953 396.23438 A 8.1267972 8.1267972 0 0 0 274.97852 396.25195 A 8.1259846 8.1259846 0 0 0 274.97461 396.25391 A 8.1267972 8.1267972 0 0 0 274.96875 396.25781 A 8.1267972 8.1267972 0 0 0 274.93164 396.27344 A 8.1259846 8.1259846 0 0 0 274.79883 396.33398 A 8.1259846 8.1259846 0 0 0 274.61523 396.42578 A 8.1259846 8.1259846 0 0 0 274.55273 396.45703 A 8.1267972 8.1267972 0 0 0 274.54688 396.46094 A 8.1267972 8.1267972 0 0 0 274.53906 396.46484 A 8.1259846 8.1259846 0 0 0 274.51953 396.47656 A 8.1267972 8.1267972 0 0 0 274.49609 396.48828 A 8.1267972 8.1267972 0 0 0 274.49414 396.48828 A 8.1259846 8.1259846 0 0 0 274.45703 396.50781 A 8.1259846 8.1259846 0 0 0 274.39648 396.54102 A 8.1259846 8.1259846 0 0 0 274.35938 396.5625 A 8.1267972 8.1267972 0 0 0 274.33594 396.57422 A 8.1267972 8.1267972 0 0 0 274.32812 396.58008 A 8.1267972 8.1267972 0 0 0 274.29688 396.59766 A 8.1259846 8.1259846 0 0 0 274.16602 396.67188 A 8.1267972 8.1267972 0 0 0 274.13867 396.68945 A 8.1267972 8.1267972 0 0 0 274.12695 396.69531 A 8.1267972 8.1267972 0 0 0 274.12109 396.69922 A 8.1267972 8.1267972 0 0 0 274.11133 396.70508 A 8.1259846 8.1259846 0 0 0 274.02148 396.75781 A 8.1259846 8.1259846 0 0 0 273.73242 396.94727 A 8.1267972 8.1267972 0 0 0 273.71875 396.95508 A 8.1267972 8.1267972 0 0 0 273.7168 396.95703 A 8.1259846 8.1259846 0 0 0 273.71289 396.96094 A 8.1267972 8.1267972 0 0 0 273.69531 396.97266 A 8.1267972 8.1267972 0 0 0 273.6875 396.97656 A 8.1259846 8.1259846 0 0 0 273.58594 397.04883 A 8.1259846 8.1259846 0 0 0 273.54492 397.07617 A 8.1267972 8.1267972 0 0 0 273.52734 397.08984 A 8.1259846 8.1259846 0 0 0 273.52148 397.0957 A 8.1267972 8.1267972 0 0 0 273.49414 397.11523 A 8.1267972 8.1267972 0 0 0 273.48047 397.125 A 8.1259846 8.1259846 0 0 0 273.42969 397.16211 A 8.1259846 8.1259846 0 0 0 273.37109 397.20508 A 8.1267972 8.1267972 0 0 0 273.33398 397.23438 A 8.1259846 8.1259846 0 0 0 273.2793 397.27539 A 8.1259846 8.1259846 0 0 0 273.24023 397.30859 A 8.1259846 8.1259846 0 0 0 273.18164 397.35352 A 8.1267972 8.1267972 0 0 0 273.14648 397.38281 A 8.1259846 8.1259846 0 0 0 273.12891 397.39648 A 8.1259846 8.1259846 0 0 0 273.01172 397.49609 A 8.1259846 8.1259846 0 0 0 272.97656 397.52734 A 8.1267972 8.1267972 0 0 0 272.96484 397.53711 A 8.1259846 8.1259846 0 0 0 272.95898 397.54297 A 8.1267972 8.1267972 0 0 0 272.95508 397.54688 A 8.1259846 8.1259846 0 0 0 272.95117 397.54883 A 8.1259846 8.1259846 0 0 0 272.875 397.61719 A 8.1259846 8.1259846 0 0 0 272.78711 397.69531 A 8.1267972 8.1267972 0 0 0 272.78516 397.69727 A 8.1259846 8.1259846 0 0 0 272.71094 397.76758 A 8.1259846 8.1259846 0 0 0 272.66406 397.81055 A 8.1259846 8.1259846 0 0 0 272.64453 397.83008 L 154.91602 510.83203 L 154.73242 369.84375 A 8.1259846 8.1259846 0 0 0 154.73242 369.78906 L 154.73242 369.76562 L 154.91602 228.72266 z M 23.4375 422.70898 L 140.95703 535.51367 A 8.1267972 8.1267972 0 0 0 140.9668 535.52344 A 8.1259846 8.1259846 0 0 0 141.11914 535.67578 A 8.1267972 8.1267972 0 0 0 141.25977 535.81055 A 8.1259846 8.1259846 0 0 0 141.30664 535.85352 A 8.1267972 8.1267972 0 0 0 141.31055 535.85742 A 8.1259846 8.1259846 0 0 0 141.4707 536 A 8.1267972 8.1267972 0 0 0 141.61328 536.12109 A 8.1259846 8.1259846 0 0 0 141.66797 536.16992 A 8.1267972 8.1267972 0 0 0 141.67188 536.17188 A 8.1259846 8.1259846 0 0 0 141.83984 536.30469 A 8.1267972 8.1267972 0 0 0 141.96094 536.39453 A 8.1259846 8.1259846 0 0 0 142.0332 536.44922 A 8.1267972 8.1267972 0 0 0 142.4082 536.70703 A 8.1259846 8.1259846 0 0 0 142.4375 536.72461 A 8.1267972 8.1267972 0 0 0 142.44922 536.73242 A 8.1259846 8.1259846 0 0 0 142.63281 536.8457 A 8.1267972 8.1267972 0 0 0 143.07227 537.0918 A 8.1259846 8.1259846 0 0 0 143.26367 537.1875 A 8.1267972 8.1267972 0 0 0 143.36914 537.23633 A 8.1259846 8.1259846 0 0 0 143.48047 537.28906 A 8.1267972 8.1267972 0 0 0 143.50391 537.29883 A 8.1259846 8.1259846 0 0 0 143.71094 537.38672 A 8.1267972 8.1267972 0 0 0 143.75977 537.40625 A 8.1259846 8.1259846 0 0 0 144.16992 537.56055 A 8.1267972 8.1267972 0 0 0 144.17383 537.5625 A 8.1259846 8.1259846 0 0 0 144.37695 537.62891 A 8.1267972 8.1267972 0 0 0 144.40039 537.63672 A 8.1259846 8.1259846 0 0 0 144.60742 537.69727 A 8.1267972 8.1267972 0 0 0 144.76758 537.74023 A 8.1259846 8.1259846 0 0 0 144.83789 537.75977 A 8.1267972 8.1267972 0 0 0 144.86328 537.76562 A 8.1259846 8.1259846 0 0 0 145.07227 537.81445 A 8.1267972 8.1267972 0 0 0 145.0957 537.82031 A 8.1259846 8.1259846 0 0 0 145.30664 537.86133 A 8.1267972 8.1267972 0 0 0 145.50781 537.89648 A 8.1259846 8.1259846 0 0 0 145.55469 537.9043 A 8.1267972 8.1267972 0 0 0 145.56836 537.90625 A 8.1259846 8.1259846 0 0 0 145.7793 537.93555 A 8.1267972 8.1267972 0 0 0 145.80469 537.93945 A 8.1259846 8.1259846 0 0 0 146.01758 537.96289 A 8.1267972 8.1267972 0 0 0 146.28125 537.98438 A 8.1259846 8.1259846 0 0 0 146.49609 537.99609 A 8.1267972 8.1267972 0 0 0 146.76172 538.00195 A 8.1259846 8.1259846 0 0 0 147.09766 537.99609 A 8.1267972 8.1267972 0 0 0 147.21484 537.99219 A 8.1259846 8.1259846 0 0 0 147.24023 537.99023 A 8.1267972 8.1267972 0 0 0 147.45508 537.97656 A 8.1259846 8.1259846 0 0 0 147.48047 537.97461 A 8.1267972 8.1267972 0 0 0 148.16797 537.88867 A 8.1259846 8.1259846 0 0 0 148.19336 537.88477 A 8.1267972 8.1267972 0 0 0 148.4043 537.84375 A 8.1259846 8.1259846 0 0 0 148.42773 537.83984 A 8.1267972 8.1267972 0 0 0 148.87109 537.73633 A 8.1259846 8.1259846 0 0 0 148.89453 537.73047 A 8.1267972 8.1267972 0 0 0 149.33008 537.60156 A 8.1259846 8.1259846 0 0 0 149.35547 537.59375 A 8.1267972 8.1267972 0 0 0 149.45508 537.55859 A 8.1259846 8.1259846 0 0 0 149.55664 537.52344 A 8.1267972 8.1267972 0 0 0 149.78125 537.43945 A 8.1259846 8.1259846 0 0 0 149.80469 537.42969 A 8.1267972 8.1267972 0 0 0 150.00391 537.34766 A 8.1259846 8.1259846 0 0 0 150.02734 537.33789 A 8.1267972 8.1267972 0 0 0 150.04297 537.33008 A 8.1259846 8.1259846 0 0 0 150.24609 537.24023 A 8.1267972 8.1267972 0 0 0 150.31445 537.20703 A 8.1259846 8.1259846 0 0 0 150.46094 537.13672 A 8.1267972 8.1267972 0 0 0 150.65234 537.03711 A 8.1259846 8.1259846 0 0 0 150.67383 537.02539 A 8.1267972 8.1267972 0 0 0 150.8418 536.92969 A 8.1259846 8.1259846 0 0 0 150.88281 536.9082 A 8.1267972 8.1267972 0 0 0 150.94141 536.87305 A 8.1259846 8.1259846 0 0 0 151.06641 536.79883 A 8.1259846 8.1259846 0 0 0 151.08789 536.78516 A 8.1267972 8.1267972 0 0 0 151.14648 536.74805 A 8.1259846 8.1259846 0 0 0 151.15039 536.74414 A 8.1267972 8.1267972 0 0 0 151.26953 536.66992 A 8.1259846 8.1259846 0 0 0 151.29102 536.65625 A 8.1267972 8.1267972 0 0 0 151.46875 536.53516 A 8.1259846 8.1259846 0 0 0 151.48828 536.52148 A 8.1267972 8.1267972 0 0 0 151.5332 536.48828 A 8.1259846 8.1259846 0 0 0 151.54492 536.48047 A 8.1259846 8.1259846 0 0 0 151.66211 536.39453 A 8.1259846 8.1259846 0 0 0 151.68164 536.37891 A 8.1267972 8.1267972 0 0 0 151.69141 536.37305 A 8.1259846 8.1259846 0 0 0 151.69531 536.36914 A 8.1267972 8.1267972 0 0 0 151.73633 536.33789 A 8.1259846 8.1259846 0 0 0 151.85156 536.24805 A 8.1259846 8.1259846 0 0 0 151.87305 536.23242 A 8.1267972 8.1267972 0 0 0 151.92578 536.18945 A 8.1259846 8.1259846 0 0 0 151.9375 536.17969 A 8.1267972 8.1267972 0 0 0 152.03906 536.09766 A 8.1259846 8.1259846 0 0 0 152.05664 536.08203 A 8.1267972 8.1267972 0 0 0 152.21875 535.94141 A 8.1259846 8.1259846 0 0 0 152.23828 535.92383 A 8.1267972 8.1267972 0 0 0 152.28906 535.87695 A 8.1259846 8.1259846 0 0 0 152.39648 535.7793 A 8.1259846 8.1259846 0 0 0 152.41406 535.76172 A 8.1267972 8.1267972 0 0 0 152.44336 535.73242 L 152.46484 535.71289 A 8.1259846 8.1259846 0 0 0 152.50195 535.67578 L 173.04492 515.95703 L 270.14453 422.75586 L 269.96289 563.71875 A 8.1259846 8.1259846 0 0 0 269.96289 563.7207 L 269.96289 563.75586 A 8.1259846 8.1259846 0 0 0 269.96289 563.77734 L 270.14453 704.78516 L 152.44336 591.79883 A 8.1259846 8.1259846 0 0 0 143.41992 590.27734 A 8.1259846 8.1259846 0 0 0 143.38477 590.29297 A 8.1259846 8.1259846 0 0 0 142.58984 590.71875 A 8.1259846 8.1259846 0 0 0 142.51953 590.76172 A 8.1259846 8.1259846 0 0 0 142.42383 590.82422 A 8.1259846 8.1259846 0 0 0 142.31641 590.89258 A 8.1259846 8.1259846 0 0 0 142.28125 590.91602 A 8.1259846 8.1259846 0 0 0 142.1543 591.00391 A 8.1259846 8.1259846 0 0 0 141.60156 591.42773 A 8.1259846 8.1259846 0 0 0 141.55859 591.46484 A 8.1259846 8.1259846 0 0 0 141.48242 591.5293 A 8.1259846 8.1259846 0 0 0 141.36328 591.63281 A 8.1259846 8.1259846 0 0 0 141.29297 591.69727 A 8.1259846 8.1259846 0 0 0 141.18555 591.79883 A 8.1259846 8.1259846 0 0 0 141.16602 591.81836 L 23.4375 704.83008 L 23.246094 563.83984 A 8.1259846 8.1259846 0 0 0 23.246094 563.77734 L 23.246094 563.75586 L 23.4375 422.70898 z M 796.11523 422.70898 L 796.29883 563.76758 L 796.11523 704.83008 L 678.43359 591.86523 A 8.1259846 8.1259846 0 0 0 678.26562 591.70508 A 8.1259846 8.1259846 0 0 0 678.25977 591.69922 A 8.1259846 8.1259846 0 0 0 678.25781 591.69727 A 8.1259846 8.1259846 0 0 0 677.96094 591.43359 A 8.1259846 8.1259846 0 0 0 677.63672 591.17773 A 8.1259846 8.1259846 0 0 0 677.51953 591.08984 A 8.1259846 8.1259846 0 0 0 677.44336 591.03516 A 8.1259846 8.1259846 0 0 0 677.32422 590.95117 A 8.1259846 8.1259846 0 0 0 677.24609 590.89844 A 8.1259846 8.1259846 0 0 0 677.125 590.82031 A 8.1259846 8.1259846 0 0 0 677.04492 590.76953 A 8.1259846 8.1259846 0 0 0 676.92188 590.69336 A 8.1259846 8.1259846 0 0 0 676.83984 590.64453 A 8.1259846 8.1259846 0 0 0 676.71289 590.57227 A 8.1259846 8.1259846 0 0 0 676.65625 590.54102 A 8.1259846 8.1259846 0 0 0 676.50391 590.45898 A 8.1259846 8.1259846 0 0 0 676.41992 590.41602 A 8.1259846 8.1259846 0 0 0 676.28906 590.35156 A 8.1259846 8.1259846 0 0 0 676.20312 590.31055 A 8.1259846 8.1259846 0 0 0 676.07227 590.25 A 8.1259846 8.1259846 0 0 0 676.05664 590.24219 A 8.1259846 8.1259846 0 0 0 675.85156 590.1543 A 8.1259846 8.1259846 0 0 0 675.54102 590.0332 A 8.1259846 8.1259846 0 0 0 675.4043 589.98438 A 8.1259846 8.1259846 0 0 0 675.31445 589.95312 A 8.1259846 8.1259846 0 0 0 675.17578 589.9082 A 8.1259846 8.1259846 0 0 0 675.11328 589.88867 A 8.1259846 8.1259846 0 0 0 674.94727 589.83984 A 8.1259846 8.1259846 0 0 0 674.85547 589.81445 A 8.1259846 8.1259846 0 0 0 674.8125 589.80469 A 8.1259846 8.1259846 0 0 0 674.38867 589.70312 A 8.1259846 8.1259846 0 0 0 674.24609 589.67578 A 8.1259846 8.1259846 0 0 0 673.77344 589.59961 A 8.1259846 8.1259846 0 0 0 673.67969 589.58789 A 8.1259846 8.1259846 0 0 0 673.62109 589.58203 A 8.1259846 8.1259846 0 0 0 673.20312 589.54688 A 8.1259846 8.1259846 0 0 0 673.17188 589.54492 A 8.1259846 8.1259846 0 0 0 672.75391 589.5332 A 8.1259846 8.1259846 0 0 0 672.41797 589.54102 A 8.1259846 8.1259846 0 0 0 672.24414 589.54883 A 8.1259846 8.1259846 0 0 0 672.20898 589.55078 A 8.1259846 8.1259846 0 0 0 672.04492 589.56445 A 8.1259846 8.1259846 0 0 0 671.96484 589.57031 A 8.1259846 8.1259846 0 0 0 671.79883 589.58789 A 8.1259846 8.1259846 0 0 0 671.76562 589.5918 A 8.1259846 8.1259846 0 0 0 671.62305 589.61133 A 8.1259846 8.1259846 0 0 0 671.41016 589.64258 A 8.1259846 8.1259846 0 0 0 671.35938 589.65039 A 8.1259846 8.1259846 0 0 0 671.21289 589.67773 A 8.1259846 8.1259846 0 0 0 671.09961 589.70117 A 8.1259846 8.1259846 0 0 0 670.98047 589.72656 A 8.1259846 8.1259846 0 0 0 670.87695 589.75 A 8.1259846 8.1259846 0 0 0 670.77148 589.77539 A 8.1259846 8.1259846 0 0 0 670.5957 589.82031 A 8.1259846 8.1259846 0 0 0 670.58594 589.82422 A 8.1259846 8.1259846 0 0 0 670.37695 589.88477 A 8.1259846 8.1259846 0 0 0 670.34375 589.89453 A 8.1259846 8.1259846 0 0 0 669.92578 590.03711 A 8.1259846 8.1259846 0 0 0 669.87305 590.05469 A 8.1259846 8.1259846 0 0 0 669.72461 590.11328 A 8.1259846 8.1259846 0 0 0 669.59766 590.16602 A 8.1259846 8.1259846 0 0 0 669.50195 590.20703 A 8.1259846 8.1259846 0 0 0 669.43555 590.23438 A 8.1259846 8.1259846 0 0 0 669.27734 590.30664 A 8.1259846 8.1259846 0 0 0 669.24414 590.32227 A 8.1259846 8.1259846 0 0 0 669.11523 590.38672 A 8.1259846 8.1259846 0 0 0 668.77734 590.56445 A 8.1259846 8.1259846 0 0 0 668.62305 590.65234 A 8.1259846 8.1259846 0 0 0 668.58398 590.67578 A 8.1259846 8.1259846 0 0 0 668.4082 590.7832 A 8.1259846 8.1259846 0 0 0 668.40625 590.78516 A 8.1259846 8.1259846 0 0 0 668.4043 590.78711 A 8.1259846 8.1259846 0 0 0 668.20898 590.91406 A 8.1259846 8.1259846 0 0 0 668.1875 590.92773 A 8.1259846 8.1259846 0 0 0 668.06445 591.01367 A 8.1259846 8.1259846 0 0 0 667.91406 591.11914 A 8.1259846 8.1259846 0 0 0 667.87305 591.15039 A 8.1259846 8.1259846 0 0 0 667.75195 591.24219 A 8.1259846 8.1259846 0 0 0 667.65234 591.32227 A 8.1259846 8.1259846 0 0 0 667.55664 591.40039 A 8.1259846 8.1259846 0 0 0 667.49805 591.44922 A 8.1259846 8.1259846 0 0 0 667.38672 591.54492 A 8.1259846 8.1259846 0 0 0 667.28125 591.63867 A 8.1259846 8.1259846 0 0 0 667.21484 591.69922 A 8.1259846 8.1259846 0 0 0 667.10938 591.79883 A 8.1259846 8.1259846 0 0 0 667.06055 591.8457 L 549.4082 704.7832 L 549.58984 563.81836 A 8.1259846 8.1259846 0 0 0 549.58984 563.75586 L 549.4082 422.75586 L 666.90039 535.53125 A 8.1259846 8.1259846 0 0 0 671.52344 537.91016 A 8.1259846 8.1259846 0 0 0 671.67969 537.93164 A 8.1259846 8.1259846 0 0 0 671.71289 537.9375 A 8.1259846 8.1259846 0 0 0 671.87891 537.95508 A 8.1259846 8.1259846 0 0 0 672.00391 537.96875 A 8.1259846 8.1259846 0 0 0 672.08203 537.97461 A 8.1259846 8.1259846 0 0 0 672.23242 537.98633 A 8.1259846 8.1259846 0 0 0 672.31055 537.99023 A 8.1259846 8.1259846 0 0 0 672.71875 538.00195 A 8.1259846 8.1259846 0 0 0 672.75 538.00195 A 8.1259846 8.1259846 0 0 0 672.8418 538 A 8.1259846 8.1259846 0 0 0 672.89844 538 A 8.1259846 8.1259846 0 0 0 672.92578 538 A 8.1259846 8.1259846 0 0 0 673.13867 537.99219 A 8.1259846 8.1259846 0 0 0 673.14648 537.99219 A 8.1259846 8.1259846 0 0 0 673.37695 537.97656 A 8.1259846 8.1259846 0 0 0 673.39453 537.97461 A 8.1259846 8.1259846 0 0 0 674.0918 537.88867 A 8.1259846 8.1259846 0 0 0 674.12109 537.88281 A 8.1259846 8.1259846 0 0 0 678.60156 535.50391 L 796.11523 422.70898 z M 286.44336 422.75781 L 403.95703 535.54688 A 8.1259846 8.1259846 0 0 0 407.875 537.77148 A 8.1259846 8.1259846 0 0 0 407.92969 537.78516 A 8.1259846 8.1259846 0 0 0 409.07617 537.96875 A 8.1259846 8.1259846 0 0 0 409.09766 537.9707 A 8.1259846 8.1259846 0 0 0 409.46289 537.99219 A 8.1259846 8.1259846 0 0 0 409.79492 537.99805 A 8.1259846 8.1259846 0 0 0 409.88477 537.99609 A 8.1259846 8.1259846 0 0 0 409.94336 537.99609 A 8.1259846 8.1259846 0 0 0 410.0332 537.99414 A 8.1259846 8.1259846 0 0 0 410.0957 537.99023 A 8.1259846 8.1259846 0 0 0 410.27344 537.98242 A 8.1259846 8.1259846 0 0 0 410.28711 537.98242 A 8.1259846 8.1259846 0 0 0 410.51172 537.96484 A 8.1259846 8.1259846 0 0 0 410.66016 537.94922 A 8.1259846 8.1259846 0 0 0 410.67188 537.94727 A 8.1259846 8.1259846 0 0 0 411.83789 537.73242 A 8.1259846 8.1259846 0 0 0 411.92578 537.70898 A 8.1259846 8.1259846 0 0 0 412.06836 537.66797 A 8.1259846 8.1259846 0 0 0 412.07031 537.66797 A 8.1259846 8.1259846 0 0 0 415.63672 535.50391 L 533.10156 422.76367 L 532.91992 563.75586 A 8.1259846 8.1259846 0 0 0 532.91992 563.76953 A 8.1259846 8.1259846 0 0 0 532.91992 563.77734 L 533.10156 704.77539 L 415.46875 591.86523 A 8.1259846 8.1259846 0 0 0 415.30078 591.70508 A 8.1259846 8.1259846 0 0 0 415.29492 591.69922 A 8.1259846 8.1259846 0 0 0 415.29297 591.69727 A 8.1259846 8.1259846 0 0 0 415.11719 591.53906 A 8.1259846 8.1259846 0 0 0 415.04492 591.47656 A 8.1259846 8.1259846 0 0 0 414.74609 591.23438 A 8.1259846 8.1259846 0 0 0 414.67188 591.17773 A 8.1259846 8.1259846 0 0 0 414.35938 590.95312 A 8.1259846 8.1259846 0 0 0 414.28125 590.90039 A 8.1259846 8.1259846 0 0 0 414.1582 590.82031 A 8.1259846 8.1259846 0 0 0 414.15625 590.82031 A 8.1259846 8.1259846 0 0 0 414.01562 590.73242 A 8.1259846 8.1259846 0 0 0 413.87305 590.64648 A 8.1259846 8.1259846 0 0 0 413.74805 590.57422 A 8.1259846 8.1259846 0 0 0 413.73633 590.56836 A 8.1259846 8.1259846 0 0 0 413.53711 590.45898 A 8.1259846 8.1259846 0 0 0 413.45312 590.41602 A 8.1259846 8.1259846 0 0 0 413.32227 590.35156 A 8.1259846 8.1259846 0 0 0 413.3125 590.34766 A 8.1259846 8.1259846 0 0 0 413.10547 590.25 A 8.1259846 8.1259846 0 0 0 413.01953 590.21289 A 8.1259846 8.1259846 0 0 0 412.7168 590.08789 A 8.1259846 8.1259846 0 0 0 412.57422 590.03516 A 8.1259846 8.1259846 0 0 0 412.4375 589.98633 A 8.1259846 8.1259846 0 0 0 412.34766 589.95508 A 8.1259846 8.1259846 0 0 0 412.29492 589.93945 A 8.1259846 8.1259846 0 0 0 412.11914 589.88281 A 8.1259846 8.1259846 0 0 0 411.98047 589.8418 A 8.1259846 8.1259846 0 0 0 411.88867 589.81641 A 8.1259846 8.1259846 0 0 0 411.84766 589.80664 A 8.1259846 8.1259846 0 0 0 411.4668 589.71484 A 8.1259846 8.1259846 0 0 0 411.28125 589.67773 A 8.1259846 8.1259846 0 0 0 411.26562 589.67578 A 8.1259846 8.1259846 0 0 0 411.04492 589.63672 A 8.1259846 8.1259846 0 0 0 410.95117 589.62305 A 8.1259846 8.1259846 0 0 0 410.80664 589.60352 A 8.1259846 8.1259846 0 0 0 410.71289 589.5918 A 8.1259846 8.1259846 0 0 0 410.56836 589.57617 A 8.1259846 8.1259846 0 0 0 410.55859 589.57617 A 8.1259846 8.1259846 0 0 0 410.33008 589.55664 A 8.1259846 8.1259846 0 0 0 410.23633 589.55078 A 8.1259846 8.1259846 0 0 0 410.20312 589.54883 A 8.1259846 8.1259846 0 0 0 409.78711 589.53711 A 8.1259846 8.1259846 0 0 0 409.44922 589.54492 A 8.1259846 8.1259846 0 0 0 409.0957 589.56641 A 8.1259846 8.1259846 0 0 0 408.69336 589.61133 A 8.1259846 8.1259846 0 0 0 408.5625 589.62891 A 8.1259846 8.1259846 0 0 0 408.54688 589.63086 A 8.1259846 8.1259846 0 0 0 408.33594 589.66602 A 8.1259846 8.1259846 0 0 0 408.30078 589.67188 A 8.1259846 8.1259846 0 0 0 408.11328 589.71094 A 8.1259846 8.1259846 0 0 0 408.04883 589.72461 A 8.1259846 8.1259846 0 0 0 407.9043 589.75781 A 8.1259846 8.1259846 0 0 0 407.75195 589.79492 A 8.1259846 8.1259846 0 0 0 407.7168 589.80273 A 8.1259846 8.1259846 0 0 0 407.51953 589.85742 A 8.1259846 8.1259846 0 0 0 407.42188 589.88672 A 8.1259846 8.1259846 0 0 0 407.35938 589.90625 A 8.1259846 8.1259846 0 0 0 407.22461 589.94727 A 8.1259846 8.1259846 0 0 0 406.84766 590.08398 A 8.1259846 8.1259846 0 0 0 406.77344 590.11328 A 8.1259846 8.1259846 0 0 0 406.43555 590.25586 A 8.1259846 8.1259846 0 0 0 406.30859 590.31445 A 8.1259846 8.1259846 0 0 0 406.2793 590.32812 A 8.1259846 8.1259846 0 0 0 406.14844 590.39258 A 8.1259846 8.1259846 0 0 0 405.97266 590.48242 A 8.1259846 8.1259846 0 0 0 405.89844 590.52344 A 8.1259846 8.1259846 0 0 0 405.73828 590.61328 A 8.1259846 8.1259846 0 0 0 405.71875 590.62305 A 8.1259846 8.1259846 0 0 0 405.59961 590.69336 A 8.1259846 8.1259846 0 0 0 405.45703 590.78125 A 8.1259846 8.1259846 0 0 0 405.38477 590.82617 A 8.1259846 8.1259846 0 0 0 405.29297 590.88672 A 8.1259846 8.1259846 0 0 0 405.17773 590.96484 A 8.1259846 8.1259846 0 0 0 405.05078 591.05273 A 8.1259846 8.1259846 0 0 0 405.0332 591.06445 A 8.1259846 8.1259846 0 0 0 404.87109 591.18555 A 8.1259846 8.1259846 0 0 0 404.77734 591.25781 A 8.1259846 8.1259846 0 0 0 404.71875 591.30469 A 8.1259846 8.1259846 0 0 0 404.57812 591.41602 A 8.1259846 8.1259846 0 0 0 404.5293 591.45703 A 8.1259846 8.1259846 0 0 0 404.42383 591.54883 A 8.1259846 8.1259846 0 0 0 404.30859 591.65039 A 8.1259846 8.1259846 0 0 0 404.2793 591.67969 A 8.1259846 8.1259846 0 0 0 404.15039 591.79883 A 8.1259846 8.1259846 0 0 0 404.12305 591.82617 L 286.44336 704.7832 L 286.63086 563.82422 A 8.1259846 8.1259846 0 0 0 286.63086 563.77734 A 8.1259846 8.1259846 0 0 0 286.63086 563.75586 L 286.44336 422.75781 z "
       transform="scale(0.26458333)" />
  </g>
</svg>
