<?xml version="1.0" encoding="UTF-8" standalone="no"?>
<svg
   xmlns:dc="http://purl.org/dc/elements/1.1/"
   xmlns:cc="http://creativecommons.org/ns#"
   xmlns:rdf="http://www.w3.org/1999/02/22-rdf-syntax-ns#"
   xmlns:svg="http://www.w3.org/2000/svg"
   xmlns="http://www.w3.org/2000/svg"
   width="156.26544mm"
   height="129.79539mm"
   viewBox="0 0 937.59265 778.77232"
   version="1.1"
   id="svg1993">
  <defs
     id="defs1987">
    <clipPath
       id="clipPath3053-1-4">
      <path
         id="path3055-4-7"
         d="M 0,850.394 H 1417.323 V 0 H 0 Z" />
    </clipPath>
  </defs>
  <metadata
     id="metadata1990">
    <rdf:RDF>
      <cc:Work
         rdf:about="">
        <dc:format>image/svg+xml</dc:format>
        <dc:type
           rdf:resource="http://purl.org/dc/dcmitype/StillImage" />
        <dc:title></dc:title>
      </cc:Work>
    </rdf:RDF>
  </metadata>
  <g
     id="layer1"
     transform="translate(-113.92847,-153.85046)">
    <path
       id="path4155-7-1"
       style="fill:none;fill-opacity:1;stroke:#00f8ff;stroke-width:3.01977;stroke-miterlimit:4;stroke-dasharray:none;stroke-opacity:1"
       d="m 340.31915,161.36058 a 166.16244,199.53145 49.020445 0 0 -141.91639,55.82444 166.16244,199.53145 49.020445 0 0 -41.66723,256.29394 166.16244,199.53145 49.020445 0 0 160.12511,45.58903 290.0617,290.0617 0 0 0 -13.71596,38.71278 H 862.30434 A 290.0617,290.0617 0 0 0 848.58839,519.06799 199.53145,166.16244 40.979554 0 0 1008.714,473.47896 199.53145,166.16244 40.979554 0 0 967.04679,217.18502 199.53145,166.16244 40.979554 0 0 707.44403,211.77747 199.53145,166.16244 40.979554 0 0 679.68966,361.67689 290.0617,290.0617 0 0 0 582.72503,344.98962 290.0617,290.0617 0 0 0 485.75937,361.67742 166.16244,199.53145 49.020445 0 0 458.0055,211.77747 166.16244,199.53145 49.020445 0 0 340.9031,161.36058 a 166.16244,199.53145 49.020445 0 0 -0.58395,0 z m -38.58317,401.71186 a 290.0617,290.0617 0 0 0 -7.69824,43.77875 H 871.4118 a 290.0617,290.0617 0 0 0 -7.69877,-43.77875 z m -8.45375,53.03916 a 290.0617,290.0617 0 0 0 -0.61908,18.93994 290.0617,290.0617 0 0 0 0.75241,20.8706 H 872.0345 a 290.0617,290.0617 0 0 0 0.75189,-20.8706 290.0617,290.0617 0 0 0 -0.6196,-18.93994 z m 1.39268,53.0397 a 290.0617,290.0617 0 0 0 6.54741,35.84178 h 563.0049 a 290.0617,290.0617 0 0 0 6.54741,-35.84178 z m 11.38742,53.0397 a 290.0617,290.0617 0 0 0 12.14138,31.87277 H 847.24582 A 290.0617,290.0617 0 0 0 859.3872,722.191 Z m 22.72316,53.03943 a 290.0617,290.0617 0 0 0 17.54312,27.90429 h 472.79284 a 290.0617,290.0617 0 0 0 17.54259,-27.90429 z m 37.60236,53.0397 a 290.0617,290.0617 0 0 0 24.03627,23.935 h 384.60079 a 290.0617,290.0617 0 0 0 24.03679,-23.935 z m 63.06487,53.03917 a 290.0617,290.0617 0 0 0 153.27231,43.80362 290.0617,290.0617 0 0 0 153.27178,-43.80362 z" />
  </g>
</svg>
